<svg width="262" height="56" viewBox="0 0 262 56" fill="none" xmlns="http://www.w3.org/2000/svg">
<path d="M12.081 42.5187L10.0225 47.3681L9.67383 52.1442H14.4499L15.3797 51.6204L18.0718 51.7143L18.1132 52.988H23.117L23.4768 51.7143H27.2563C27.2563 51.7143 26.1976 42.4025 24.3906 41.1575C17.5305 45.819 12.0794 42.5235 12.0794 42.5235" fill="white"/>
<path d="M24.4831 47.9553L24.7617 51.504H23.4355L24.4831 47.9553Z" fill="#2494D1"/>
<path d="M11.3711 43.856C11.3711 43.856 15.5232 46.3364 20.5015 43.856C24.4816 41.8771 12.0812 42.5187 12.0812 42.5187L11.3711 43.856Z" fill="#2494D1"/>
<path d="M27.2866 53.6773H23.2285L23.4752 51.708H27.2563C27.2563 51.708 27.2961 53.0357 27.2898 53.6773" fill="#EB2126"/>
<path d="M27.2867 54.3125H23.2286C23.1381 54.3132 23.0485 54.2945 22.9658 54.2579C22.8831 54.2212 22.8092 54.1673 22.7489 54.0998C22.6887 54.0324 22.6435 53.9528 22.6164 53.8665C22.5893 53.7802 22.5809 53.6891 22.5917 53.5993L22.8433 51.6363C22.8628 51.4816 22.9384 51.3393 23.0558 51.2366C23.1731 51.1339 23.3241 51.0779 23.4801 51.0791H27.2564C27.4218 51.079 27.5807 51.1433 27.6995 51.2582C27.8184 51.3732 27.8879 51.5299 27.8932 51.6952C27.8932 51.6952 27.933 53.0405 27.9267 53.69C27.9229 53.857 27.8537 54.0158 27.734 54.1322C27.6143 54.2486 27.4537 54.3134 27.2867 54.3125ZM23.9434 53.0389H26.6498C26.6498 52.8017 26.6403 52.5613 26.6355 52.3416H24.0373L23.9434 53.0389Z" fill="#144A8F"/>
<path d="M25.9031 41.6398C25.9031 41.6398 28.713 37.9256 33.1214 38.9604C37.5297 39.9952 38.6808 37.3811 38.6808 37.3811C38.6808 37.3811 36.4901 45.3986 30.8798 43.1873C30.8798 43.1873 31.7411 43.91 32.5355 44.6058C30.8527 45.8141 29.326 46.5321 26.3059 44.714" fill="#2494D1"/>
<path d="M25.7932 41.8915C25.7932 41.8915 28.3707 38.104 31.9799 38.9478C35.589 39.7915 37.7638 38.9 37.7638 38.9C37.7638 38.9 35.2515 44.0455 31.2364 41.667C30.5375 41.1671 29.6014 41.2785 29.1445 41.9153C28.6876 42.5521 28.8834 43.4755 29.5823 43.9754C28.5252 44.4037 27.1178 43.8576 26.3632 43.3545" fill="white"/>
<path d="M13.2464 43.0566C13.2464 43.0566 13.6874 41.9215 12.0826 42.5185C10.4778 43.1155 9.44141 52.1647 9.44141 52.1647H10.161C10.5558 52.1647 11.3486 52.0899 11.3216 51.6966C11.3216 51.6966 11.3709 49.022 11.5572 47.5303C11.9297 46.1595 13.2464 43.0566 13.2464 43.0566Z" fill="#2494D1"/>
<path d="M32.5498 21.6708C32.5498 30.3139 25.6611 43.8574 17.1644 43.8574C8.66767 43.8574 1.78369 30.3139 1.78369 21.6708C1.78369 13.0276 8.67245 9.57129 17.1692 9.57129C25.6659 9.57129 32.5546 13.0339 32.5546 21.6708" fill="white"/>
<path d="M17.1645 44.4927C8.3207 44.4927 1.14697 30.6834 1.14697 21.6708C1.14697 13.5737 6.98657 8.93457 17.1692 8.93457C27.3519 8.93457 33.1899 13.5801 33.1899 21.6708C33.1852 30.6834 26.0082 44.4927 17.1645 44.4927ZM17.1645 10.2003C12.729 10.2003 2.41423 11.3146 2.41423 21.6708C2.41423 29.9846 9.16448 43.2224 17.1645 43.2224C25.1645 43.2224 31.9147 29.9846 31.9147 21.6708C31.9147 11.3179 21.5983 10.2003 17.1645 10.2003Z" fill="#144A8F"/>
<path d="M3.98406 20.23C3.98406 20.23 2.47162 20.472 1.72814 20.1632C0.728338 19.7477 2.35222 18.4995 2.35222 18.4995L3.98406 20.23Z" fill="#2494D1"/>
<path d="M20.8644 18.6174C20.8644 20.5438 19.5907 21.187 17.2027 22.0944C14.4962 22.0944 9.03711 20.5438 9.03711 18.6174C9.03711 16.691 14.9977 15.1277 17.7042 15.1277C20.4106 15.1277 20.8596 16.6895 20.8596 18.6174" fill="#2494D1"/>
<path d="M19.4873 35.9642C19.4873 35.9642 18.6467 32.4617 21.2799 31.2852C20.7816 32.632 19.7547 35.555 20.3979 36.5867C21.0411 37.6183 19.4873 35.9642 19.4873 35.9642Z" fill="#2494D1"/>
<path d="M17.1645 44.4927C8.3207 44.4927 1.14697 30.6834 1.14697 21.6708C1.14697 13.5737 6.98657 8.93457 17.1692 8.93457C27.3519 8.93457 33.1899 13.5801 33.1899 21.6708C33.1852 30.6834 26.0082 44.4927 17.1645 44.4927ZM17.1645 10.2003C12.729 10.2003 2.41423 11.3146 2.41423 21.6708C2.41423 29.9846 9.16448 43.2224 17.1645 43.2224C25.1645 43.2224 31.9147 29.9846 31.9147 21.6708C31.9147 11.3179 21.5983 10.2003 17.1645 10.2003Z" fill="#144A8F"/>
<path d="M12.2402 24.6956C12.2402 24.6956 13.0999 28.3573 18.8472 28.9066C19.2324 28.9432 19.4601 28.4703 19.2531 28.144C18.9825 27.7157 18.1196 27.0216 18.1069 26.4532C19.3805 26.6013 21.4501 27.219 22.5391 26.6299C22.6138 26.589 22.6756 26.528 22.7176 26.4538C22.7596 26.3797 22.7801 26.2953 22.7768 26.2102C22.7734 26.125 22.7465 26.0425 22.6989 25.9718C22.6513 25.9011 22.5849 25.8451 22.5073 25.81C21.802 25.4916 21.837 24.304 21.5106 23.6958" fill="#2494D1"/>
<path d="M12.4106 23.5319C12.4106 23.5319 12.9058 27.5678 20.0636 27.0472C19.6385 26.4963 19.1864 25.9057 19.1673 25.1033C20.5874 25.2625 22.3816 25.3055 23.2859 24.2468C22.4421 24.0987 21.4964 23.4507 21.1048 22.7168" fill="white"/>
<path d="M18.8186 27.73C12.3597 27.73 11.7993 23.7866 11.777 23.6098C11.7673 23.4485 11.8193 23.2894 11.9226 23.165C12.0258 23.0405 12.1725 22.96 12.3329 22.9398C12.4933 22.9195 12.6554 22.961 12.7864 23.0559C12.9173 23.1508 13.0072 23.2919 13.0379 23.4506C13.0586 23.5923 13.5521 26.4596 18.8202 26.4596H18.8934C18.6672 26.048 18.5422 25.5885 18.5289 25.1191C18.5278 25.0294 18.5456 24.9405 18.5813 24.8582C18.617 24.7759 18.6696 24.702 18.7358 24.6415C18.8032 24.5808 18.8829 24.5351 18.9694 24.5077C19.0558 24.4802 19.1472 24.4716 19.2373 24.4823C20.3836 24.616 21.2656 24.5858 21.9024 24.3899C21.3381 24.0622 20.8689 23.5931 20.5412 23.0287C20.4815 22.8833 20.4777 22.7208 20.5306 22.5727C20.5835 22.4246 20.6893 22.3013 20.8277 22.2266C20.9661 22.1519 21.1272 22.131 21.2801 22.168C21.433 22.205 21.5667 22.2972 21.6556 22.427C21.9486 22.9746 22.7255 23.5159 23.3862 23.6321C23.4961 23.6521 23.5989 23.7006 23.6842 23.7728C23.7695 23.845 23.8342 23.9384 23.872 24.0436C23.9097 24.1488 23.9191 24.2621 23.8993 24.3721C23.8794 24.482 23.8309 24.5848 23.7587 24.6701C22.8496 25.7368 21.3181 25.8944 19.984 25.8244C20.1478 26.1237 20.3397 26.4067 20.5571 26.6697C20.6268 26.7608 20.6707 26.869 20.684 26.9828C20.6973 27.0967 20.6796 27.2121 20.6329 27.3168C20.5861 27.4215 20.5119 27.5116 20.4181 27.5776C20.3244 27.6436 20.2145 27.6831 20.1002 27.6918C19.6534 27.7184 19.2262 27.7311 18.8186 27.73Z" fill="#144A8F"/>
<path d="M21.9167 17.9088C21.9167 19.1665 19.7898 21.4797 17.1645 21.4797C14.5392 21.4797 12.4106 19.1665 12.4106 17.9088C12.4106 16.651 14.3131 0.636719 16.94 0.636719C19.5669 0.636719 21.9167 16.6526 21.9167 17.9088Z" fill="white"/>
<path d="M17.1645 22.1166C14.2415 22.1166 11.7754 19.5327 11.7754 17.9089C11.7754 17.7258 13.3818 0 16.94 0C20.5412 0 22.5535 17.7305 22.5535 17.9089C22.5535 19.5327 20.0922 22.1166 17.1645 22.1166ZM16.94 1.27204C15.3082 1.27204 13.0475 15.4062 13.0475 17.9089C13.0475 18.7606 14.829 20.8446 17.1645 20.8446C19.5 20.8446 21.2815 18.7606 21.2815 17.9089C21.2815 17.3421 20.6956 13.0468 19.7913 8.9393C18.1484 1.48697 16.9511 1.27204 16.94 1.27204Z" fill="#144A8F"/>
<path d="M20.0205 40.4379C20.0874 40.7754 19.5333 40.4204 18.9602 40.5334C18.3871 40.6465 18.005 41.1862 17.9445 40.8519C17.884 40.5175 18.2215 39.8122 18.7946 39.6976C19.3678 39.583 19.9536 40.102 20.0205 40.4411" fill="#144A8F"/>
<path d="M14.361 40.4379C14.2941 40.7754 14.8482 40.4204 15.4213 40.5334C15.9944 40.6465 16.3765 41.1862 16.437 40.8519C16.4975 40.5175 16.16 39.8122 15.5869 39.6976C15.0137 39.583 14.4279 40.102 14.361 40.4411" fill="#144A8F"/>
<path d="M8.31114 12.714C8.31114 12.714 4.55392 10.8545 1.08009 11.0774C-0.153738 14.6484 1.25999 18.2193 3.94576 19.6107" fill="white"/>
<path d="M3.93778 20.2477C3.83586 20.2472 3.73548 20.2227 3.64485 20.176C0.561074 18.5728 -0.80012 14.572 0.478287 10.869C0.519368 10.7506 0.594449 10.647 0.69413 10.5711C0.793812 10.4952 0.913664 10.4504 1.03868 10.4423C4.64943 10.2035 8.4337 12.0646 8.59291 12.1442C8.73446 12.2244 8.83994 12.3557 8.88772 12.5112C8.9355 12.6667 8.92194 12.8347 8.84984 12.9805C8.77773 13.1263 8.65255 13.239 8.49997 13.2955C8.34739 13.3519 8.17899 13.3479 8.02933 13.2841C7.99589 13.2682 4.68604 11.6602 1.55132 11.692C0.704358 14.6851 1.814 17.7912 4.23072 19.0473C4.35642 19.1134 4.4564 19.2196 4.51478 19.3491C4.57315 19.4786 4.58657 19.6239 4.5529 19.7618C4.51923 19.8998 4.4404 20.0226 4.32895 20.1106C4.21749 20.1986 4.07981 20.2469 3.93778 20.2477Z" fill="#144A8F"/>
<path d="M2.30125 13.4607C2.21687 13.9924 2.32513 16.2181 4.30563 17.7767C4.32138 17.7935 4.34258 17.8041 4.36545 17.8067C4.38832 17.8093 4.41136 17.8037 4.43048 17.7909C4.4496 17.7781 4.46355 17.7589 4.46984 17.7368C4.47613 17.7147 4.47436 17.691 4.46483 17.6701C4.34002 17.3253 4.25821 16.9665 4.22125 16.6018C4.21968 16.5803 4.22417 16.5589 4.23421 16.5399C4.24425 16.5209 4.25944 16.5051 4.27803 16.4943C4.29663 16.4835 4.31789 16.4781 4.33938 16.4788C4.36087 16.4796 4.38172 16.4863 4.39956 16.4983C4.58105 16.6209 4.80394 16.7069 5.23538 16.6161C5.26758 16.6092 5.29769 16.5947 5.32329 16.574C5.34888 16.5532 5.36924 16.5268 5.38272 16.4967C5.3962 16.4666 5.40242 16.4338 5.40089 16.4009C5.39936 16.368 5.39011 16.3359 5.37389 16.3073C5.27665 16.1628 5.20902 16.0004 5.17488 15.8296C5.17064 15.8007 5.17284 15.7711 5.18134 15.7431C5.18983 15.7151 5.20441 15.6893 5.22402 15.6675C5.24364 15.6458 5.26781 15.6286 5.29482 15.6173C5.32182 15.606 5.351 15.6007 5.38026 15.602C6.13488 15.6291 6.72394 15.723 7.19518 15.3855" fill="#2494D1"/>
<path d="M6.92284 14.9078C5.61996 14.2982 4.24361 13.86 2.82812 13.604L6.92284 14.9078Z" fill="white"/>
<path d="M6.9228 15.5432C6.82519 15.5426 6.72893 15.5203 6.64101 15.4779C5.39329 14.8961 4.07596 14.4772 2.72141 14.2313C2.56069 14.1971 2.41943 14.1021 2.32716 13.9661C2.23489 13.8301 2.19875 13.6637 2.2263 13.5017C2.25384 13.3398 2.34295 13.1947 2.47498 13.0968C2.607 12.999 2.77174 12.956 2.93474 12.9768C4.41144 13.2418 5.84698 13.6994 7.20459 14.338C7.33201 14.4024 7.4341 14.5077 7.49448 14.6371C7.55485 14.7665 7.57 14.9124 7.53749 15.0514C7.50499 15.1904 7.42672 15.3145 7.31524 15.4036C7.20377 15.4928 7.06556 15.542 6.9228 15.5432Z" fill="#144A8F"/>
<path d="M26.0161 12.714C26.0161 12.714 29.7749 10.8545 33.2488 11.0774C34.4826 14.6484 33.0689 18.2193 30.3831 19.6107" fill="white"/>
<path d="M30.3912 20.2476C30.2491 20.2471 30.1112 20.1991 29.9994 20.1112C29.8877 20.0233 29.8086 19.9006 29.7747 19.7625C29.7409 19.6244 29.7542 19.479 29.8125 19.3494C29.8709 19.2197 29.9709 19.1134 30.0967 19.0472C32.5102 17.791 33.6247 14.685 32.7777 11.6951C29.6239 11.6442 26.3331 13.2681 26.3013 13.284C26.1516 13.3478 25.9832 13.3518 25.8306 13.2954C25.6781 13.2389 25.5529 13.1262 25.4808 12.9804C25.4087 12.8345 25.3951 12.6666 25.4429 12.5111C25.4907 12.3556 25.5962 12.2243 25.7377 12.1441C25.8969 12.0661 29.6907 10.2113 33.2935 10.4422C33.4186 10.4503 33.5384 10.4951 33.6381 10.571C33.7378 10.6469 33.8128 10.7505 33.8539 10.8689C35.1276 14.5719 33.7711 18.5727 30.6858 20.1759C30.5948 20.2232 30.4938 20.2477 30.3912 20.2476Z" fill="#144A8F"/>
<path d="M32.0326 13.4607C32.117 13.9924 32.0087 16.2181 30.0282 17.7767C30.0125 17.7935 29.9913 17.8041 29.9684 17.8067C29.9456 17.8093 29.9225 17.8037 29.9034 17.7909C29.8843 17.7781 29.8703 17.7589 29.864 17.7368C29.8577 17.7147 29.8595 17.691 29.869 17.6701C29.9931 17.3251 30.0749 16.9664 30.1126 16.6018C30.1142 16.5803 30.1097 16.5589 30.0997 16.5399C30.0896 16.5209 30.0744 16.5051 30.0558 16.4943C30.0372 16.4835 30.016 16.4781 29.9945 16.4788C29.973 16.4796 29.9522 16.4863 29.9343 16.4983C29.7528 16.6209 29.5299 16.7069 29.0985 16.6161C29.0663 16.6092 29.0362 16.5947 29.0106 16.574C28.985 16.5532 28.9646 16.5268 28.9512 16.4967C28.9377 16.4666 28.9315 16.4338 28.933 16.4009C28.9345 16.368 28.9438 16.3359 28.96 16.3073C29.0566 16.1624 29.1242 16.0002 29.159 15.8296C29.1632 15.8007 29.161 15.7711 29.1525 15.7431C29.144 15.7151 29.1295 15.6893 29.1099 15.6675C29.0902 15.6458 29.0661 15.6286 29.0391 15.6173C29.0121 15.606 28.9829 15.6007 28.9536 15.602C28.199 15.6291 27.6099 15.723 27.1387 15.3855" fill="#2494D1"/>
<path d="M27.4045 14.9078C28.7079 14.2981 30.0848 13.8598 31.5008 13.604L27.4045 14.9078Z" fill="white"/>
<path d="M27.4062 15.5432C27.2633 15.5423 27.1248 15.4934 27.0131 15.4044C26.9013 15.3153 26.8228 15.1912 26.7901 15.0521C26.7574 14.913 26.7724 14.767 26.8327 14.6375C26.8931 14.5079 26.9952 14.4025 27.1228 14.338C28.4814 13.6991 29.918 13.2415 31.3958 12.9768C31.5588 12.956 31.7235 12.999 31.8556 13.0968C31.9876 13.1947 32.0767 13.3398 32.1043 13.5017C32.1318 13.6637 32.0957 13.8301 32.0034 13.9661C31.9111 14.1021 31.7699 14.1971 31.6091 14.2313C30.2541 14.4774 28.9363 14.8963 27.688 15.4779C27.6 15.5204 27.5038 15.5427 27.4062 15.5432Z" fill="#144A8F"/>
<path d="M29.751 34.802C28.1319 38.3045 24.9447 40.2754 22.6314 39.2072C20.3182 38.1389 19.7562 34.431 21.3737 30.9286C22.9912 27.4261 26.1801 25.4535 28.4933 26.5234C30.8066 27.5932 31.3701 31.2995 29.751 34.802Z" fill="white"/>
<path d="M23.988 40.1353C23.4281 40.1379 22.8744 40.0178 22.3658 39.7835C21.046 39.1737 20.1703 37.8571 19.8997 36.0756C19.6434 34.3912 19.9634 32.4681 20.7976 30.6627C22.5616 26.8418 26.1357 24.7339 28.7578 25.9471C31.3799 27.1602 32.0883 31.2534 30.326 35.068C29.4901 36.8733 28.2324 38.3618 26.7837 39.2581C25.846 39.8408 24.8907 40.1353 23.988 40.1353ZM27.1562 26.8736C25.3301 26.8736 23.149 28.6058 21.9518 31.196C21.2211 32.7785 20.9377 34.4439 21.1558 35.8847C21.3596 37.2299 21.9789 38.2058 22.8975 38.6293C23.8161 39.0527 24.9672 38.8935 26.1166 38.1771C27.3552 37.4099 28.441 36.117 29.1717 34.5345C30.6157 31.4109 30.1827 28.0072 28.2261 27.1013C27.8903 26.9484 27.5251 26.8707 27.1562 26.8736Z" fill="#144A8F"/>
<path d="M26.4986 32.8582C26.4989 33.4007 26.3383 33.9312 26.0372 34.3825C25.736 34.8337 25.3078 35.1856 24.8067 35.3935C24.3056 35.6014 23.7541 35.656 23.2219 35.5505C22.6898 35.445 22.2008 35.184 21.817 34.8006C21.4331 34.4172 21.1716 33.9286 21.0655 33.3965C20.9593 32.8645 21.0133 32.3129 21.2206 31.8115C21.428 31.3102 21.7793 30.8816 22.2302 30.5799C22.6811 30.2782 23.2114 30.117 23.7539 30.1167C24.481 30.1171 25.1783 30.4061 25.6925 30.9201C26.2068 31.434 26.4962 32.1311 26.497 32.8582" fill="#144A8F"/>
<path d="M4.57789 34.802C6.1954 38.3045 9.38267 40.2754 11.6959 39.2072C14.0092 38.1389 14.5727 34.431 12.9536 30.9286C11.3345 27.4261 8.15202 25.4551 5.83401 26.525C3.516 27.5948 2.95879 31.3011 4.57789 34.8036" fill="white"/>
<path d="M10.3395 40.1354C9.43678 40.1354 8.48155 39.8409 7.54225 39.2582C6.09349 38.3619 4.83578 36.8701 3.99996 35.068C2.23757 31.2471 2.93966 27.1619 5.56812 25.9472C8.19658 24.7324 11.7676 26.8483 13.5284 30.6628C14.3626 32.4682 14.681 34.3913 14.4247 36.0757C14.154 37.8572 13.2784 39.1738 11.9602 39.7836C11.4521 40.0176 10.8989 40.1377 10.3395 40.1354ZM7.1729 26.8737C6.80341 26.8705 6.43769 26.9482 6.10145 27.1014C4.14484 28.0073 3.71339 31.411 5.15419 34.5346C5.88494 36.1171 6.97071 37.4098 8.21091 38.1772C9.36832 38.9 10.5114 39.0592 11.4301 38.6294C12.3487 38.1995 12.9664 37.2299 13.1717 35.8847C13.3899 34.4439 13.1081 32.7786 12.3757 31.1961C11.1769 28.6059 8.99897 26.8737 7.1729 26.8737Z" fill="#144A8F"/>
<path d="M4.57789 34.802C6.1954 38.3045 9.38267 40.2754 11.6959 39.2072C14.0092 38.1389 14.5727 34.431 12.9536 30.9286C11.3345 27.4261 8.15202 25.4551 5.83401 26.525C3.516 27.5948 2.95879 31.3011 4.57789 34.8036" fill="white"/>
<path d="M10.3395 40.1354C9.43678 40.1354 8.48155 39.8409 7.54225 39.2582C6.09349 38.3619 4.83578 36.8701 3.99996 35.068C2.23757 31.2471 2.93966 27.1619 5.56812 25.9472C8.19658 24.7324 11.7676 26.8483 13.5284 30.6628C14.3626 32.4682 14.681 34.3913 14.4247 36.0757C14.154 37.8572 13.2784 39.1738 11.9602 39.7836C11.4521 40.0176 10.8989 40.1377 10.3395 40.1354ZM7.1729 26.8737C6.80341 26.8705 6.43769 26.9482 6.10145 27.1014C4.14484 28.0073 3.71339 31.411 5.15419 34.5346C5.88494 36.1171 6.97071 37.4098 8.21091 38.1772C9.36832 38.9 10.5114 39.0592 11.4301 38.6294C12.3487 38.1995 12.9664 37.2299 13.1717 35.8847C13.3899 34.4439 13.1081 32.7786 12.3757 31.1961C11.1769 28.6059 8.99897 26.8737 7.1729 26.8737Z" fill="#144A8F"/>
<path d="M7.8335 32.8582C7.83318 33.4008 7.99379 33.9313 8.29502 34.3826C8.59624 34.8339 9.02454 35.1858 9.52575 35.3936C10.027 35.6015 10.5786 35.656 11.1108 35.5504C11.643 35.4447 12.1319 35.1836 12.5157 34.8C12.8995 34.4165 13.1609 33.9277 13.2669 33.3955C13.3728 32.8634 13.3186 32.3118 13.111 31.8104C12.9035 31.3091 12.5519 30.8806 12.1008 30.5791C11.6496 30.2776 11.1192 30.1167 10.5766 30.1167C9.84935 30.1167 9.15187 30.4055 8.63749 30.9196C8.12311 31.4337 7.83392 32.131 7.8335 32.8582Z" fill="#144A8F"/>
<path d="M13.3278 32.8582C13.3281 33.4009 13.1674 33.9314 12.8661 34.3828C12.5648 34.8341 12.1364 35.186 11.6351 35.3938C11.1338 35.6016 10.5822 35.656 10.0499 35.5503C9.51762 35.4445 9.0287 35.1832 8.64498 34.7995C8.26126 34.4157 7.99997 33.9268 7.89418 33.3946C7.78839 32.8623 7.84284 32.3106 8.05066 31.8093C8.25847 31.308 8.61031 30.8796 9.06165 30.5784C9.51299 30.2771 10.0436 30.1164 10.5863 30.1167C11.3132 30.1171 12.0103 30.4061 12.5243 30.9202C13.0384 31.4342 13.3273 32.1313 13.3278 32.8582Z" fill="#144A8F"/>
<path d="M13.3118 31.4172C13.3118 31.7321 13.2185 32.0399 13.0435 32.3017C12.8686 32.5635 12.62 32.7676 12.329 32.8881C12.0381 33.0086 11.718 33.0401 11.4092 32.9787C11.1004 32.9172 10.8167 32.7656 10.5941 32.543C10.3714 32.3203 10.2198 32.0366 10.1583 31.7278C10.0969 31.419 10.1284 31.0989 10.2489 30.808C10.3694 30.5171 10.5735 30.2684 10.8353 30.0935C11.0971 29.9185 11.4049 29.8252 11.7198 29.8252C12.142 29.8252 12.547 29.9929 12.8455 30.2915C13.1441 30.59 13.3118 30.995 13.3118 31.4172Z" fill="white"/>
<path d="M13.8419 38.9652C13.4445 39.4584 13.2462 40.0826 13.2863 40.7147C13.3264 41.3468 13.6019 41.941 14.0584 42.3801C14.7271 43.0169 16.1901 43.3942 16.94 43.4595C16.94 43.4595 11.4729 43.0997 9.63257 40.4028C10.4285 39.5813 12.4982 38.4637 13.1159 37.6756C13.7336 36.8876 15.0439 35.356 15.9163 36.1234" fill="#2494D1"/>
<path d="M15.0471 35.9197C15.0471 35.9197 16.0914 29.9718 11.5557 28.27C12.5332 30.4717 14.5567 35.2606 13.5872 37.0564C12.6176 38.8523 15.0471 35.9197 15.0471 35.9197Z" fill="#2494D1"/>
<path d="M17.1612 44.4928C14.1124 44.4928 11.0462 42.861 8.29193 39.7756C8.24413 39.7206 8.20543 39.6582 8.1773 39.5909C6.54068 38.8045 4.99322 37.2029 3.99979 35.0696C2.2374 31.2487 2.94108 27.1619 5.56795 25.9472C6.88616 25.3374 8.4575 25.5237 9.98904 26.4725C11.4394 27.3689 12.6955 28.8606 13.5313 30.6628C14.3496 32.4347 14.6362 34.2672 14.4452 35.8433C15.2016 35.1399 16.2013 34.757 17.2341 34.7751C18.2669 34.7932 19.2525 35.2109 19.9839 35.9404L22.2478 38.1915C22.3548 38.3128 22.4117 38.4703 22.4069 38.632C22.4021 38.7937 22.336 38.9475 22.2219 39.0622C22.1078 39.1768 21.9544 39.2438 21.7927 39.2495C21.631 39.2551 21.4733 39.1991 21.3514 39.0926L19.086 36.8399C18.576 36.3315 17.8853 36.0461 17.1652 36.0461C16.4451 36.0461 15.7544 36.3315 15.2444 36.8399L13.0298 39.0449C13.0098 39.0642 12.9885 39.0823 12.9662 39.099C12.6721 39.3816 12.3331 39.6135 11.9632 39.7852C11.4758 40.0078 10.9467 40.1245 10.4109 40.1275C12.1288 41.7195 14.4563 43.2224 17.1612 43.2224C17.3301 43.2224 17.4921 43.2895 17.6115 43.4089C17.7309 43.5283 17.798 43.6903 17.798 43.8592C17.798 44.0281 17.7309 44.1901 17.6115 44.3095C17.4921 44.4289 17.3301 44.496 17.1612 44.496V44.4928ZM5.15402 34.5346C6.62347 37.7187 9.43501 39.5511 11.4298 38.6294C13.3865 37.7251 13.8179 34.3213 12.3851 31.1961C11.6543 29.6152 10.5686 28.3209 9.32834 27.5535C8.17093 26.8371 7.02785 26.6779 6.10924 27.1014C4.15262 28.0057 3.72118 31.411 5.16198 34.5346H5.15402Z" fill="#144A8F"/>
<path d="M29.5475 46.2902C28.5922 46.2902 27.5893 46.0322 26.5226 45.5196C26.3775 45.4425 26.2679 45.3124 26.2165 45.1564C26.1651 45.0004 26.1761 44.8305 26.247 44.6824C26.3179 44.5342 26.4433 44.4192 26.597 44.3613C26.7507 44.3034 26.9208 44.3072 27.0718 44.3718C29.089 45.3365 30.447 45.085 31.4882 44.531C30.9389 44.0533 30.4852 43.6792 30.4852 43.6792C30.3722 43.5817 30.2971 43.4476 30.2729 43.3004C30.2487 43.1532 30.277 43.0021 30.3528 42.8736C30.4286 42.7451 30.5472 42.6473 30.6878 42.5972C30.8283 42.5472 30.982 42.5481 31.122 42.5998C32.3144 43.0774 33.3779 43.0583 34.3713 42.5616C35.6275 41.9343 36.5381 40.6416 37.1431 39.4842C36.1879 39.8583 34.8362 40.0191 32.9767 39.5845C29.0428 38.6611 26.5162 41.8929 26.4111 42.0315C26.3067 42.1588 26.157 42.2406 25.9935 42.2599C25.8299 42.2792 25.6653 42.2344 25.5341 42.1349C25.4029 42.0355 25.3153 41.889 25.2897 41.7263C25.2642 41.5637 25.3026 41.3974 25.397 41.2625C25.5228 41.1033 28.511 37.2315 33.2681 38.3459C37.0587 39.2342 38.0617 37.2076 38.1031 37.1216C38.1704 36.9769 38.2895 36.8628 38.4369 36.8018C38.5843 36.7408 38.7493 36.7373 38.8991 36.7921C39.0478 36.847 39.1707 36.9554 39.2438 37.0962C39.3168 37.2369 39.3347 37.3998 39.2939 37.553C39.243 37.7409 38.0044 42.17 34.9413 43.6967C34.3471 43.9985 33.6963 44.1726 33.0308 44.2078C33.0856 44.275 33.1261 44.3528 33.1498 44.4363C33.1735 44.5197 33.1798 44.6072 33.1685 44.6932C33.1572 44.7792 33.1284 44.862 33.0839 44.9365C33.0394 45.011 32.9802 45.0756 32.9098 45.1264C31.8273 45.9049 30.7224 46.2902 29.5475 46.2902Z" fill="#144A8F"/>
<path d="M14.8814 52.5994H9.67383V54.755H14.8814V52.5994Z" fill="#EB2126"/>
<path d="M22.9484 53.5659H17.7424V55.7215H22.9484V53.5659Z" fill="#EB2126"/>
<path d="M20.2594 56.0015C20.0905 56.0015 19.9285 55.9344 19.8091 55.815C19.6897 55.6955 19.6226 55.5336 19.6226 55.3647V54.4859C19.6226 54.317 19.6897 54.155 19.8091 54.0356C19.9285 53.9161 20.0905 53.8491 20.2594 53.8491C20.4283 53.8491 20.5903 53.9161 20.7097 54.0356C20.8291 54.155 20.8962 54.317 20.8962 54.4859V55.3647C20.8962 55.5336 20.8291 55.6955 20.7097 55.815C20.5903 55.9344 20.4283 56.0015 20.2594 56.0015Z" fill="#144A8F"/>
<path d="M9.76472 52.3653C9.76472 52.3653 10.4843 52.3653 11.0383 52.3334C11.2134 52.3255 11.3392 52.5611 11.2723 52.7776C11.016 53.615 11.2373 54.2917 11.0431 54.5527C10.8107 54.86 9.51318 54.384 9.51318 54.384L9.76472 52.3653Z" fill="#A62126"/>
<path d="M17.6675 53.421C17.6675 53.421 18.3807 53.3271 18.9268 53.2299C19.0987 53.1997 19.2452 53.4178 19.2133 53.6407C19.0653 54.5036 19.3725 55.1468 19.2133 55.4302C19.0207 55.7661 17.6738 55.4556 17.6738 55.4556L17.6675 53.421Z" fill="#A62126"/>
<path d="M14.7875 17.1049C14.7875 17.1049 17.4525 19.3465 19.2754 18.8561C20.3771 18.5584 19.2133 20.9258 14.9419 20.3319C10.4969 19.711 12.8006 15.1785 12.8006 15.1785L14.7875 17.1049Z" fill="#EB2126"/>
<path d="M15.3717 12.4608C15.6774 13.1836 18.0002 14.2757 19.6161 14.1834C19.7229 14.1758 19.8292 14.2043 19.9178 14.2644C20.0064 14.3244 20.0723 14.4125 20.1049 14.5145C20.4918 15.7659 20.5045 17.2067 20.1797 17.7862C19.8613 18.3402 12.7704 17.0347 12.7401 14.0449C12.7099 11.055 13.9071 10.9961 13.9071 10.9961L15.3717 12.4608Z" fill="#EB2126"/>
<path d="M15.4181 7.46344C15.6585 8.15279 17.475 9.24812 18.6977 9.35797C18.8415 9.37155 18.9783 9.42663 19.0913 9.51652C19.2044 9.6064 19.2889 9.72721 19.3345 9.86424C19.6529 10.8004 19.7469 11.8113 19.8981 12.7156C19.9936 13.2824 13.2816 12.0374 13.2561 9.05389C13.2307 6.07041 14.2114 6.00513 14.2114 6.00513L15.4181 7.46344Z" fill="#EB2126"/>
<path d="M19.4077 18.3866C17.3778 18.3866 15.5565 17.5348 14.8895 17.183C13.6524 16.5271 12.2912 15.4811 12.1527 14.51C12.1381 14.3467 12.187 14.184 12.2893 14.0559C12.3915 13.9277 12.5393 13.8439 12.7018 13.822C12.8642 13.8 13.0289 13.8416 13.1615 13.938C13.2941 14.0344 13.3844 14.1783 13.4136 14.3396C13.4566 14.5896 14.1794 15.4015 15.6536 16.145C16.4592 16.5509 19.266 17.7864 21.5696 16.6337C21.6448 16.5906 21.728 16.5632 21.814 16.5533C21.9001 16.5434 21.9873 16.5512 22.0703 16.5762C22.1533 16.6012 22.2303 16.6428 22.2966 16.6986C22.3629 16.7544 22.4172 16.8231 22.456 16.9005C22.4949 16.978 22.5175 17.0626 22.5225 17.1491C22.5275 17.2356 22.5148 17.3222 22.4852 17.4037C22.4556 17.4851 22.4097 17.5596 22.3502 17.6227C22.2908 17.6858 22.2191 17.736 22.1396 17.7705C21.2897 18.1867 20.354 18.3977 19.4077 18.3866ZM19.0367 13.6105C17.6892 13.5827 16.3684 13.2293 15.1872 12.5804C14.1141 12.012 12.9281 11.0998 12.8118 10.2433C12.7953 10.0793 12.8431 9.91517 12.9451 9.78563C13.0471 9.65609 13.1953 9.57115 13.3586 9.54867C13.522 9.52619 13.6876 9.56793 13.8208 9.66511C13.954 9.76228 14.0443 9.90732 14.0727 10.0698C14.1316 10.2831 14.8258 11.0409 16.2188 11.6761C17.0355 12.0487 19.1227 12.8208 20.8596 11.9484C21.0089 11.8838 21.1773 11.8788 21.3301 11.9344C21.483 11.99 21.6088 12.102 21.6817 12.2474C21.7546 12.3928 21.7691 12.5606 21.7222 12.7164C21.6753 12.8722 21.5706 13.0041 21.4295 13.0851C20.6837 13.4441 19.8643 13.624 19.0367 13.6105Z" fill="#144A8F"/>
<path d="M18.7023 6.5623C18.7338 6.69263 18.7138 6.8301 18.6465 6.94606C18.5792 7.06202 18.4697 7.14754 18.3409 7.18479C17.8464 7.3577 17.3282 7.45381 16.8046 7.46976C14.9976 7.51275 14.2605 5.31892 14.2605 5.31892C14.2605 5.31892 14.9658 1.10797 16.5515 1.15096C17.0896 1.16528 18.2947 4.86678 18.7023 6.56389" fill="#EB2126"/>
<path d="M17.1645 22.1166C14.2415 22.1166 11.7754 19.5327 11.7754 17.9089C11.7754 17.8006 12.3772 11.122 13.6572 5.95423C13.6635 5.89623 13.678 5.83942 13.7002 5.78547C14.509 2.5807 15.582 0 16.94 0C20.5412 0 22.5535 17.7305 22.5535 17.9089C22.5535 19.5327 20.0922 22.1166 17.1645 22.1166ZM14.6379 7.42368C13.7416 11.563 13.0459 16.5238 13.0459 17.9089C13.0459 18.7606 14.8274 20.8446 17.1629 20.8446C19.4984 20.8446 21.2799 18.7606 21.2799 17.9089C21.2799 17.3421 20.694 13.0468 19.7897 8.9393C19.7706 8.84856 19.7499 8.7594 19.7308 8.67184C18.489 8.99025 16.9846 8.76736 15.5533 8.00955C15.233 7.83908 14.9269 7.64316 14.6379 7.42368ZM14.9643 5.99085C15.1474 6.2392 15.7778 6.78687 16.7888 7.1801C17.381 7.41254 18.4477 7.71821 19.4427 7.43801C17.9828 1.45353 16.9495 1.27363 16.94 1.27363C16.3191 1.27204 15.6075 3.31781 14.9643 5.98925V5.99085Z" fill="#144A8F"/>
<path d="M26.4812 31.4172C26.4812 31.7321 26.3878 32.0399 26.2129 32.3017C26.0379 32.5635 25.7893 32.7676 25.4984 32.8881C25.2075 33.0086 24.8874 33.0401 24.5786 32.9787C24.2697 32.9172 23.9861 32.7656 23.7634 32.543C23.5408 32.3203 23.3891 32.0366 23.3277 31.7278C23.2663 31.419 23.2978 31.0989 23.4183 30.808C23.5388 30.5171 23.7429 30.2684 24.0047 30.0935C24.2665 29.9185 24.5743 29.8252 24.8892 29.8252C25.3114 29.8252 25.7163 29.9929 26.0149 30.2915C26.3135 30.59 26.4812 30.995 26.4812 31.4172Z" fill="white"/>
<path d="M17.1899 46.0642L17.2456 45.9273C17.8044 45.8206 18.6227 46.1915 18.8472 46.7137L19.562 48.7961C19.6584 49.0778 19.6711 49.3814 19.5986 49.6701L18.7723 52.9864L18.4619 49.2069L17.1899 46.0642Z" fill="#2494D1"/>
<path d="M12.1558 55.2979C11.9869 55.2979 11.825 55.2308 11.7055 55.1114C11.5861 54.992 11.519 54.83 11.519 54.6611V53.8794C11.519 53.7105 11.5861 53.5485 11.7055 53.4291C11.825 53.3097 11.9869 53.2426 12.1558 53.2426C12.3247 53.2426 12.4867 53.3097 12.6061 53.4291C12.7255 53.5485 12.7926 53.7105 12.7926 53.8794V54.6611C12.7926 54.83 12.7255 54.992 12.6061 55.1114C12.4867 55.2308 12.3247 55.2979 12.1558 55.2979ZM14.4484 52.7809H9.67222C9.50332 52.7809 9.34135 52.7138 9.22192 52.5944C9.1025 52.475 9.0354 52.313 9.0354 52.1441C9.0354 51.9752 9.1025 51.8132 9.22192 51.6938C9.34135 51.5744 9.50332 51.5073 9.67222 51.5073H14.4484C14.6173 51.5073 14.7792 51.5744 14.8987 51.6938C15.0181 51.8132 15.0852 51.9752 15.0852 52.1441C15.0852 52.313 15.0181 52.475 14.8987 52.5944C14.7792 52.7138 14.6173 52.7809 14.4484 52.7809Z" fill="#144A8F"/>
<path d="M22.6395 53.6183H18.1117C17.9428 53.6183 17.7809 53.5512 17.6614 53.4318C17.542 53.3124 17.4749 53.1504 17.4749 52.9815C17.4749 52.8126 17.542 52.6506 17.6614 52.5312C17.7809 52.4118 17.9428 52.3447 18.1117 52.3447H22.6395C22.8084 52.3447 22.9704 52.4118 23.0898 52.5312C23.2092 52.6506 23.2763 52.8126 23.2763 52.9815C23.2763 53.1504 23.2092 53.3124 23.0898 53.4318C22.9704 53.5512 22.8084 53.6183 22.6395 53.6183Z" fill="#144A8F"/>
<path d="M17.5879 46.8727C18.1721 47.457 19.1894 49.0713 18.7691 49.49C18.3488 49.9088 17.0179 49.5314 16.4384 48.9472C15.8589 48.3629 15.6663 47.5748 16.0866 47.1561C16.9478 47.5111 17.0036 46.2885 17.5879 46.8727Z" fill="#2494D1"/>
<path d="M14.391 55.3902H9.53215C9.44507 55.3904 9.35888 55.3726 9.27892 55.3381C9.19896 55.3036 9.12693 55.2531 9.06728 55.1897C9.00769 55.126 8.96182 55.0507 8.93251 54.9685C8.90321 54.8864 8.8911 54.7991 8.89693 54.712L9.38728 47.3234C9.39178 47.2613 9.40518 47.2002 9.42708 47.1419L11.3582 41.9948C11.4231 41.8448 11.5433 41.7254 11.6938 41.6615C11.8443 41.5976 12.0136 41.5941 12.1666 41.6516C12.3197 41.7091 12.4447 41.8232 12.5159 41.9704C12.5871 42.1176 12.599 42.2865 12.549 42.4422L10.6513 47.4969L10.2119 54.1198H13.7685L13.8593 50.0123C13.8616 49.9283 13.8805 49.8455 13.915 49.7688L15.0294 47.2804C15.0607 47.2001 15.1079 47.1269 15.1683 47.0653C15.2286 47.0038 15.3008 46.9551 15.3805 46.9223C15.4602 46.8895 15.5458 46.8732 15.632 46.8744C15.7182 46.8756 15.8032 46.8944 15.882 46.9294C15.9607 46.9645 16.0315 47.0152 16.0901 47.0784C16.1487 47.1416 16.1938 47.2161 16.2228 47.2973C16.2517 47.3785 16.2639 47.4647 16.2586 47.5507C16.2532 47.6368 16.2304 47.7208 16.1916 47.7978L15.1361 50.1684L15.0342 54.7694C15.03 54.9366 14.9602 55.0955 14.8399 55.2116C14.7195 55.3278 14.5583 55.392 14.391 55.3902Z" fill="#144A8F"/>
<path d="M18.0688 51.708H14.7844V53.6757H18.0688V51.708Z" fill="#EB2126"/>
<path d="M18.0704 54.3124H14.786C14.6171 54.3124 14.4551 54.2453 14.3357 54.1259C14.2162 54.0065 14.1492 53.8445 14.1492 53.6756V51.7079C14.1492 51.539 14.2162 51.377 14.3357 51.2576C14.4551 51.1381 14.6171 51.071 14.786 51.071H18.0704C18.2393 51.071 18.4012 51.1381 18.5207 51.2576C18.6401 51.377 18.7072 51.539 18.7072 51.7079V53.6772C18.7068 53.8458 18.6395 54.0074 18.5201 54.1265C18.4007 54.2456 18.239 54.3124 18.0704 54.3124ZM15.4212 53.0388H17.4335V52.3415H15.4212V53.0388Z" fill="#144A8F"/>
<path d="M22.7494 56H17.8904C17.8018 56.0004 17.714 55.9822 17.6327 55.9467C17.5515 55.9112 17.4786 55.8591 17.4186 55.7937C17.3587 55.7284 17.313 55.6512 17.2846 55.5672C17.2562 55.4832 17.2456 55.3942 17.2536 55.3059L17.8092 49.3071L16.6948 46.7773C16.635 46.6239 16.6369 46.4533 16.7001 46.3013C16.7634 46.1493 16.883 46.0277 17.034 45.962C17.1849 45.8963 17.3555 45.8916 17.5098 45.9489C17.6642 46.0063 17.7903 46.1211 17.8618 46.2695L19.0319 48.9489C19.0763 49.0487 19.0934 49.1586 19.0813 49.2673L18.5766 54.7359H22.1905L23.2397 47.8902C23.2489 47.8047 23.2754 47.7219 23.3175 47.6469C23.3596 47.5719 23.4164 47.5062 23.4846 47.4538C23.5528 47.4013 23.6309 47.3633 23.7142 47.3418C23.7975 47.3204 23.8842 47.3161 23.9692 47.3291C24.0543 47.3421 24.1358 47.3722 24.2088 47.4176C24.2819 47.463 24.345 47.5227 24.3943 47.5931C24.4437 47.6635 24.4783 47.7432 24.496 47.8274C24.5137 47.9116 24.5142 47.9984 24.4974 48.0828L23.7539 53.0468C23.7847 53.0451 23.8155 53.0451 23.8463 53.0468H24.6566C24.6969 52.917 24.7777 52.8035 24.8871 52.7229C24.9965 52.6423 25.1289 52.5988 25.2648 52.5988C25.4007 52.5988 25.533 52.6423 25.6424 52.7229C25.7519 52.8035 25.8326 52.917 25.8729 53.0468H26.653C26.5352 43.7286 23.8431 41.2163 23.8144 41.1925C23.6886 41.0812 23.6118 40.9248 23.6008 40.7572C23.5898 40.5897 23.6454 40.4245 23.7555 40.2977C23.8647 40.1724 24.0186 40.0948 24.1843 40.0814C24.35 40.068 24.5144 40.1199 24.6423 40.2261C24.776 40.3407 27.9283 43.1284 27.9283 53.682C27.9283 53.8509 27.8612 54.0129 27.7417 54.1323C27.6223 54.2517 27.4603 54.3188 27.2914 54.3188H23.8399C23.7441 54.3189 23.6495 54.2976 23.5629 54.2567L23.3782 55.4667C23.3537 55.6157 23.2769 55.7512 23.1618 55.8489C23.0466 55.9466 22.9004 56.0001 22.7494 56ZM16.2618 54.0036C16.0929 54.0036 15.9309 53.9365 15.8115 53.8171C15.6921 53.6976 15.625 53.5357 15.625 53.3668V53.2283C15.625 53.0594 15.6921 52.8974 15.8115 52.778C15.9309 52.6585 16.0929 52.5915 16.2618 52.5915C16.4307 52.5915 16.5927 52.6585 16.7121 52.778C16.8315 52.8974 16.8986 53.0594 16.8986 53.2283V53.37C16.8978 53.5383 16.8303 53.6995 16.711 53.8182C16.5916 53.9369 16.4301 54.0036 16.2618 54.0036Z" fill="#144A8F"/>
<path d="M59.7684 39.9124C59.75 40.6361 59.8578 41.3574 60.0868 42.0442H60.5485C61.8221 42.0442 67.8718 38.2074 67.8718 29.8587C67.8718 21.9749 62.1516 17.8531 58.3881 17.8531C53.9829 17.8531 50.1094 21.6183 50.1094 28.3319C50.1094 32.6304 52.0629 34.5409 53.0213 34.5409C53.9447 34.5409 53.8746 34.1158 54.1596 34.1158C54.9047 34.1158 54.2296 35.3226 53.2044 35.3226C50.1142 35.3226 44.999 33.7958 44.999 27.2605C44.999 21.8253 49.1192 16 56.4362 16C64.9966 16 71.7469 22.607 71.7469 30.806C71.7469 38.798 66.56 45.9733 62.8314 45.9733C61.518 45.9733 60.0979 45.2633 59.1029 44.3383C58.2495 44.3033 57.2561 44.0199 56.6878 43.4515C55.7628 42.4963 55.6561 40.0414 55.6561 38.5496C55.6561 33.6143 56.4028 25.3707 58.6046 25.3707C61.0913 25.3707 62.0497 26.5075 62.0497 26.8991C62.0497 27.8941 59.7779 28.8095 59.7779 39.8997" fill="white"/>
<path d="M79.3504 27.7634C77.9653 28.0484 76.6439 30.6418 76.6439 35.0454C76.6439 35.2938 76.6806 35.5787 76.6806 35.8271C77.5323 35.7204 79.7055 33.6253 79.7055 29.7885C79.7276 29.0962 79.6067 28.4069 79.3504 27.7634ZM84.714 34.9037C84.7491 34.5853 84.8908 34.442 85.0691 34.442C85.4591 34.442 86.0243 35.117 86.0243 35.8621C86.0243 39.2054 83.5725 43.7475 80.0207 43.7475C75.4388 43.7475 73.4487 39.6273 73.4487 35.2938C73.4487 28.9718 75.7222 26.3783 78.7423 26.3783C78.7423 25.5266 79.3791 25.3833 79.7357 25.3833C81.7258 25.3833 82.4422 26.77 82.4422 29.5401C82.4422 33.9087 79.4587 37.2472 77.2553 37.2472H76.9369C77.4352 38.9523 78.5289 40.6223 80.7021 40.6223C83.2255 40.6223 84.4322 37.7455 84.7172 34.9037" fill="white"/>
<path d="M88.7929 26.8401C90.178 20.6312 92.6297 17.9597 96.0048 17.9597C97.4249 17.9597 98.7033 18.7764 98.7033 19.6298C98.7033 21.8316 94.6548 25.8387 94.1214 25.8387C94.0498 25.8387 94.0148 25.7687 94.0148 25.697C94.0148 25.2003 96.2882 22.5703 96.2882 20.1249C96.2882 19.8065 96.1465 19.6282 95.8631 19.6282C94.9748 19.6282 93.0914 21.0132 91.9913 26.9102C94.4414 26.8019 97.3533 26.2001 97.5316 26.2001C97.815 26.2001 98.0299 26.4835 98.0299 26.8735C98.0299 27.5852 95.1515 28.4656 91.6713 28.8636C91.2899 32.1061 91.1096 35.3691 91.1316 38.6339C91.1316 44.8142 92.3384 45.2043 92.3384 45.986C92.3384 46.3044 91.9849 46.5193 91.4516 46.5193C89.7815 46.5193 87.5431 45.3476 87.5431 41.8658C87.5431 36.6789 87.8281 32.4521 88.3598 29.0785H87.9698C87.0146 29.0785 86.123 27.5502 86.123 27.0885C86.123 26.7334 86.6197 26.0234 86.9764 26.0234C87.017 26.026 87.0567 26.0368 87.0931 26.0551C87.1295 26.0735 87.1618 26.0989 87.1881 26.1301C87.438 26.4134 87.0814 26.6984 88.7801 26.8401" fill="white"/>
<path d="M102.094 27.7634C100.709 28.0484 99.3878 30.6418 99.3878 35.0454C99.3878 35.2938 99.4245 35.5787 99.4245 35.8271C100.276 35.7204 102.449 33.6253 102.449 29.7885C102.471 29.0962 102.351 28.4069 102.094 27.7634ZM107.458 34.9037C107.495 34.5853 107.636 34.442 107.813 34.442C108.203 34.442 108.768 35.117 108.768 35.8621C108.768 39.2054 106.316 43.7475 102.765 43.7475C98.1827 43.7475 96.1926 39.6273 96.1926 35.2938C96.1926 28.9718 98.466 26.3783 101.486 26.3783C101.486 25.5266 102.123 25.3833 102.481 25.3833C104.47 25.3833 105.18 26.77 105.18 29.5401C105.184 33.9039 102.201 37.2472 99.999 37.2472H99.6808C100.177 38.9523 101.273 40.6223 103.446 40.6223C105.968 40.6223 107.175 37.7455 107.458 34.9037Z" fill="white"/>
<path d="M116.445 35.9736C116.445 32.7768 117.4 29.2966 117.4 28.1949C117.4 27.9816 117.365 27.8399 117.259 27.8399C116.622 27.8399 114.203 32.3502 113.138 37.2521C113.102 39.8455 112.925 41.8339 112.925 41.8339C113.032 41.9422 113.102 42.2256 113.102 42.5106C113.102 42.9722 112.925 43.4658 112.25 43.4658C110.9 43.4658 108.555 42.0457 108.555 40.304C108.555 38.5623 109.51 37.5338 109.51 29.5768C109.51 27.6584 108.125 26.5933 108.125 26.1667C108.125 25.705 108.622 25.2783 109.012 25.2783C109.367 25.2783 110.078 25.3133 110.895 26.1317C112.21 27.4451 112.777 30.3219 113.027 33.2704C114.519 29.7185 116.472 26.095 117.644 26.095C120.806 26.095 121.729 27.7301 121.729 28.4751C121.729 29.5418 120.984 34.2654 120.984 37.9239C120.984 40.4457 121.339 42.4708 122.546 42.4708C124.392 42.4708 125.281 35.3321 125.387 34.3004C125.424 33.982 125.566 33.8387 125.742 33.8387C126.134 33.8387 126.698 34.5504 126.698 35.2254V35.3368C126.413 38.0433 125.809 44.9273 121.831 44.9273C118.57 44.9209 116.445 41.2974 116.445 35.9736Z" fill="white"/>
<path d="M136.027 34.4772C136.417 34.4772 137.022 35.1873 137.022 35.8989V35.9737C136.844 39.4189 134.144 44.6058 129.669 44.7124H129.597C127.005 44.7124 125.407 42.759 125.407 40.449C125.407 39.8121 125.797 39.4189 126.01 39.4189C126.117 39.4189 126.187 39.4906 126.187 39.6689C126.187 40.6241 126.757 42.2973 127.928 42.2973C129.172 42.2973 130.06 41.0539 130.06 39.0989C130.06 36.792 128.497 34.5536 127.182 32.6703L126.968 32.3519C126.792 35.0583 126.542 36.7936 126.542 36.7936C126.542 36.7936 126.542 36.9337 126.365 36.9337C125.938 36.8637 125.193 36.5087 125.193 36.047V35.9737C125.193 35.9737 125.477 33.8786 125.655 30.2551C125.499 29.972 125.413 29.6551 125.407 29.3318C125.407 26.3483 128.674 25.2466 129.527 25.2466C130.38 25.2466 130.734 25.6016 130.734 26.3833C130.734 26.5616 130.415 27.3783 130.415 28.4434C130.415 32.9202 134.144 33.8786 134.144 39.2056C134.144 39.7201 134.085 40.233 133.967 40.7339C135.28 39.1419 135.559 36.8271 135.707 34.9087C135.742 34.5903 135.849 34.482 136.026 34.482" fill="white"/>
<path d="M141.456 27.7634C140.071 28.0484 138.75 30.6418 138.75 35.0454C138.75 35.2938 138.786 35.5787 138.786 35.8271C139.638 35.7204 141.811 33.6253 141.811 29.7885C141.834 29.0962 141.713 28.4066 141.456 27.7634ZM146.82 34.9037C146.855 34.5853 146.998 34.442 147.175 34.442C147.566 34.442 148.13 35.117 148.13 35.8621C148.13 39.2054 145.678 43.7475 142.126 43.7475C137.544 43.7475 135.556 39.6273 135.556 35.2938C135.556 28.9718 137.828 26.3783 140.848 26.3783C140.848 25.5266 141.485 25.3833 141.843 25.3833C143.831 25.3833 144.549 26.77 144.549 29.5401C144.549 33.9087 141.564 37.2472 139.362 37.2472H139.044C139.541 38.9523 140.636 40.6223 142.809 40.6223C145.331 40.6223 146.539 37.7455 146.823 34.9037" fill="white"/>
<path d="M172.297 20.2841C172.297 22.9428 171.268 25.4232 170.277 27.7985C169.747 30.0282 169.473 32.3111 169.461 34.6029C169.461 45.8013 171.835 47.0064 173.04 47.0064C173.419 46.9965 173.792 46.9127 174.139 46.7597C174.174 46.7597 174.245 46.8648 174.245 46.9014C174.245 47.2198 173.75 47.8566 173.005 47.8566C169.32 47.8566 166.16 44.6311 165.774 36.94C163.01 41.9024 160.177 45.978 159.113 45.978C157.553 45.978 153.442 42.7939 153.442 39.1736C153.442 34.743 155.851 20.4592 156.738 19.574C156.881 19.4155 157.056 19.2893 157.252 19.2037C157.448 19.118 157.659 19.0749 157.873 19.0773C159.325 19.0773 160.99 20.8859 160.99 21.8427C160.997 21.9142 160.988 21.9864 160.964 22.0539C160.939 22.1214 160.9 22.1825 160.849 22.2327C159.537 23.5064 157.028 34.3879 157.028 39.7038C157.028 41.4407 157.311 42.5694 157.983 42.5694C159.79 42.5694 163.122 36.7569 165.922 30.9794C166.347 24.8484 167.623 17.3706 168.934 17.3706C170.068 17.3706 172.018 18.0791 172.302 20.2761" fill="white"/>
<path d="M181.774 35.9609C181.774 32.7768 182.73 29.2982 182.73 28.1997C182.73 27.9879 182.695 27.8447 182.588 27.8447C181.951 27.8447 179.539 32.3454 178.476 37.2377C178.441 39.8264 178.264 41.81 178.264 41.81C178.369 41.9167 178.441 42.2001 178.441 42.4835C178.441 42.9452 178.264 43.4387 177.59 43.4387C176.244 43.4387 173.905 42.0218 173.905 40.2849C173.905 38.548 174.86 37.5211 174.86 29.5816C174.86 27.6711 173.478 26.6045 173.478 26.1794C173.478 25.7193 173.975 25.2942 174.365 25.2942C174.718 25.2942 175.428 25.3292 176.244 26.1444C177.554 27.4546 178.122 30.3267 178.369 33.2672C179.858 29.7233 181.808 26.103 182.986 26.103C186.14 26.103 187.06 27.7348 187.06 28.4783C187.06 29.5418 186.316 34.2558 186.316 37.9064C186.316 40.4218 186.671 42.4421 187.877 42.4421C189.719 42.4421 190.605 35.3193 190.71 34.2908C190.747 33.9724 190.889 33.8307 191.066 33.8307C191.456 33.8307 192.021 34.5392 192.021 35.2126V35.3193C191.737 38.0114 191.136 44.8875 187.165 44.8875C183.905 44.8875 181.779 41.2735 181.779 35.9561" fill="white"/>
<path d="M193.001 18.5233C193.426 18.0982 194.49 17.7097 195.022 17.7097C196.262 17.7097 196.97 18.665 196.97 19.8001C196.966 19.9868 196.891 20.1647 196.759 20.2968C196.227 20.827 196.05 23.2023 194.49 23.2023C193.817 23.2023 192.4 22.2471 192.4 20.5436C192.4 19.375 192.576 18.9515 193.001 18.5233ZM194.773 43.4753C194.207 43.4753 192.825 42.7653 191.831 41.7734C191.016 40.9583 190.698 38.0162 190.698 35.0041C190.698 31.5302 191.123 27.9513 191.653 27.4562C191.924 27.2417 192.262 27.1291 192.608 27.1378C193.347 27.1577 194.054 27.4477 194.593 27.9529C194.912 28.2713 195.09 28.698 195.09 29.4065C195.09 29.9032 194.842 30.0433 194.842 30.0433C194.842 30.0433 194.238 35.0041 194.238 38.2295C194.238 39.7897 194.38 40.9583 194.805 40.9583C196.825 40.9583 197.352 37.3077 197.536 35.9609C197.536 35.8558 197.677 35.7842 197.854 35.7842C198.244 35.7842 198.882 36.0675 198.882 36.4926C198.862 37.5011 198.707 38.5024 198.421 39.4697C197.784 41.6317 196.295 43.4753 194.77 43.4753" fill="white"/>
<path d="M197.499 35.3592C197.499 28.8015 200.653 26.1794 203.985 26.1794C206.005 26.1794 207.422 27.2079 207.422 28.8015C207.422 31.0304 206.04 33.8356 204.977 33.8356C204.929 33.8386 204.882 33.8315 204.837 33.8147C204.793 33.798 204.753 33.7719 204.719 33.7383C204.685 33.7047 204.659 33.6644 204.643 33.6199C204.626 33.5755 204.619 33.528 204.622 33.4805C204.622 33.4089 204.622 33.3038 204.693 33.2672C205.048 32.8788 205.685 31.4252 205.685 29.2632C205.685 28.2714 205.26 27.4547 204.73 27.4547C203.597 27.4547 200.909 29.5116 200.909 35.8543C200.909 39.2581 202.681 41.6318 204.95 41.6318C208.245 41.6318 209.025 36.351 209.167 35.1458C209.202 34.8274 209.309 34.6857 209.485 34.6857C209.876 34.6857 210.477 35.3942 210.477 36.1026V36.1743C210.231 38.7964 209.025 44.3255 204.63 44.3255C200.234 44.3255 197.507 40.3916 197.507 35.3592" fill="white"/>
<path d="M217.567 32.1337C217.567 32.1337 217.532 32.5588 217.532 32.9138C217.524 33.0564 217.536 33.1993 217.567 33.3389V32.1337ZM217.496 30.1484C217.46 29.475 217.283 28.2714 216.398 28.2714C214.378 28.2714 213.066 33.2672 213.066 37.0276C213.066 39.2963 213.526 41.1032 214.626 41.1032C215.618 41.1032 216.681 38.5162 217.213 36.1058C216.433 35.5391 215.866 34.4756 215.866 32.8453C215.866 31.5335 216.61 30.2981 217.496 30.1516V30.1484ZM228.021 40.6431C228.021 42.3785 228.695 42.5918 229.122 42.5918C230.574 42.5918 231.779 36.8859 231.885 35.7874C231.92 35.469 232.062 35.3257 232.239 35.3257C232.63 35.3257 233.194 35.9291 233.194 36.5993V36.7697C232.911 39.3934 231.92 44.6376 228.588 44.6376C225.008 44.6376 224.229 41.5904 224.229 38.79C224.229 35.9546 225.398 31.3472 225.398 30.4254C225.398 29.7886 224.831 29.3269 224.124 28.9369C223.414 33.6573 221.042 36.1329 219.02 36.4513C218.312 40.7402 216.503 44.1424 214.244 44.1424C212.224 44.1424 209.14 41.5538 209.14 36.7347C209.14 31.8789 210.912 26.2797 215.129 26.2797C217.326 26.2797 218.71 27.4499 218.71 28.7251C218.71 29.5753 218.566 29.9988 218.355 30.2487C219.1 30.6037 219.346 31.5605 219.346 32.5174C219.346 33.3325 219.311 34.1094 219.241 34.8911C220.693 34.6077 222.572 32.3438 222.855 28.265C221.9 27.7683 221.012 27.2015 221.012 26.3864C221.012 25.6063 222.254 25.0029 223.21 25.0029C223.847 25.0029 224.344 25.2513 224.344 25.8897C224.344 26.3498 224.344 26.7749 224.309 27.1633C226.187 27.8718 229.306 29.1836 229.306 31.4173C229.306 32.6208 228.033 38.7168 228.033 40.632" fill="white"/>
<path d="M241.18 35.9609C241.18 32.7768 242.135 29.2982 242.135 28.1997C242.135 27.9879 242.098 27.8447 241.993 27.8447C241.356 27.8447 238.946 32.3454 237.883 37.2377C237.846 39.8264 237.669 41.81 237.669 41.81C237.776 41.9167 237.846 42.2001 237.846 42.4835C237.846 42.9452 237.669 43.4387 236.996 43.4387C235.649 43.4387 233.31 42.0218 233.31 40.2849C233.31 38.548 234.265 37.5211 234.265 29.5816C234.265 27.6711 232.884 26.6045 232.884 26.1794C232.884 25.7193 233.379 25.2942 233.769 25.2942C234.124 25.2942 234.832 25.3292 235.647 26.1444C236.959 27.4546 237.526 30.3267 237.774 33.2672C239.263 29.7233 241.211 26.103 242.382 26.103C245.535 26.103 246.457 27.7348 246.457 28.4783C246.457 29.5418 245.712 34.2558 245.712 37.9064C245.712 40.4218 246.067 42.4421 247.272 42.4421C249.114 42.4421 250.001 35.3193 250.108 34.2908C250.143 33.9724 250.285 33.8307 250.461 33.8307C250.851 33.8307 251.416 34.5392 251.416 35.2126V35.3193C251.133 38.0114 250.531 44.8875 246.561 44.8875C243.3 44.8875 241.175 41.2735 241.175 35.9561" fill="white"/>
<path d="M260.727 34.4723C261.117 34.4723 261.72 35.1823 261.72 35.8908V35.9609C261.542 39.3981 258.855 44.5738 254.382 44.6805H254.316C251.729 44.6805 250.133 42.7302 250.133 40.4265C250.133 39.7897 250.523 39.3981 250.735 39.3981C250.842 39.3981 250.913 39.4697 250.913 39.648C250.913 40.6032 251.48 42.2701 252.65 42.2701C253.891 42.2701 254.776 41.0299 254.776 39.086C254.776 36.7823 253.217 34.5503 251.91 32.6717L251.698 32.3533C251.52 35.047 251.272 36.7823 251.272 36.7823C251.272 36.7823 251.272 36.924 251.095 36.924C250.67 36.854 249.925 36.499 249.925 36.0389V35.9672C249.925 35.9672 250.21 33.8769 250.386 30.2614C250.231 29.9786 250.146 29.6623 250.138 29.3396C250.138 26.364 253.399 25.2639 254.249 25.2639C255.099 25.2639 255.454 25.619 255.454 26.3991C255.454 26.5758 255.136 27.3909 255.136 28.4544C255.136 32.9201 258.858 33.8769 258.858 39.1927C258.857 39.7057 258.798 40.217 258.679 40.7163C259.991 39.1242 260.271 36.8174 260.416 34.9053C260.451 34.5869 260.558 34.4787 260.735 34.4787" fill="white"/>
<path d="M12.081 42.5187L10.0225 47.3681L9.67383 52.1442H14.4499L15.3797 51.6204L18.0718 51.7143L18.1132 52.988H23.117L23.4768 51.7143H27.2563C27.2563 51.7143 26.1976 42.4025 24.3906 41.1575C17.5305 45.819 12.0794 42.5235 12.0794 42.5235" fill="white"/>
<path d="M24.4831 47.9553L24.7617 51.504H23.4355L24.4831 47.9553Z" fill="#2494D1"/>
<path d="M11.3711 43.856C11.3711 43.856 15.5232 46.3364 20.5015 43.856C24.4816 41.8771 12.0812 42.5187 12.0812 42.5187L11.3711 43.856Z" fill="#2494D1"/>
<path d="M27.2866 53.6773H23.2285L23.4752 51.708H27.2563C27.2563 51.708 27.2961 53.0357 27.2898 53.6773" fill="#EB2126"/>
<path d="M27.2867 54.3125H23.2286C23.1381 54.3132 23.0485 54.2945 22.9658 54.2579C22.8831 54.2212 22.8092 54.1673 22.7489 54.0998C22.6887 54.0324 22.6435 53.9528 22.6164 53.8665C22.5893 53.7802 22.5809 53.6891 22.5917 53.5993L22.8433 51.6363C22.8628 51.4816 22.9384 51.3393 23.0558 51.2366C23.1731 51.1339 23.3241 51.0779 23.4801 51.0791H27.2564C27.4218 51.079 27.5807 51.1433 27.6995 51.2582C27.8184 51.3732 27.8879 51.5299 27.8932 51.6952C27.8932 51.6952 27.933 53.0405 27.9267 53.69C27.9229 53.857 27.8537 54.0158 27.734 54.1322C27.6143 54.2486 27.4537 54.3134 27.2867 54.3125ZM23.9434 53.0389H26.6498C26.6498 52.8017 26.6403 52.5613 26.6355 52.3416H24.0373L23.9434 53.0389Z" fill="#144A8F"/>
<path d="M25.9031 41.6398C25.9031 41.6398 28.713 37.9256 33.1214 38.9604C37.5297 39.9952 38.6808 37.3811 38.6808 37.3811C38.6808 37.3811 36.4901 45.3986 30.8798 43.1873C30.8798 43.1873 31.7411 43.91 32.5355 44.6058C30.8527 45.8141 29.326 46.5321 26.3059 44.714" fill="#2494D1"/>
<path d="M25.5227 42.2734C25.5227 42.2734 28.3708 38.1039 31.98 38.9477C35.5891 39.7914 37.7639 38.8999 37.7639 38.8999C37.7639 38.8999 35.2516 44.0454 31.2365 41.6669C30.5376 41.167 29.6015 41.2784 29.1446 41.9152C28.6877 42.552 28.8835 43.4754 29.5824 43.9753C28.5253 44.4036 27.1179 43.8575 26.3633 43.3544" fill="white"/>
<path d="M13.2464 43.0566C13.2464 43.0566 13.6874 41.9215 12.0826 42.5185C10.4778 43.1155 9.44141 52.1647 9.44141 52.1647H10.161C10.5558 52.1647 11.3486 52.0899 11.3216 51.6966C11.3216 51.6966 11.3709 49.022 11.5572 47.5303C11.9297 46.1595 13.2464 43.0566 13.2464 43.0566Z" fill="#2494D1"/>
<path d="M32.5498 21.6708C32.5498 30.3139 25.6611 43.8574 17.1644 43.8574C8.66767 43.8574 1.78369 30.3139 1.78369 21.6708C1.78369 13.0276 8.67245 9.57129 17.1692 9.57129C25.6659 9.57129 32.5546 13.0339 32.5546 21.6708" fill="white"/>
<path d="M17.1645 44.4927C8.3207 44.4927 1.14697 30.6834 1.14697 21.6708C1.14697 13.5737 6.98657 8.93457 17.1692 8.93457C27.3519 8.93457 33.1899 13.5801 33.1899 21.6708C33.1852 30.6834 26.0082 44.4927 17.1645 44.4927ZM17.1645 10.2003C12.729 10.2003 2.41423 11.3146 2.41423 21.6708C2.41423 29.9846 9.16448 43.2224 17.1645 43.2224C25.1645 43.2224 31.9147 29.9846 31.9147 21.6708C31.9147 11.3179 21.5983 10.2003 17.1645 10.2003Z" fill="#144A8F"/>
<path d="M3.98406 20.23C3.98406 20.23 2.47162 20.472 1.72814 20.1632C0.728338 19.7477 2.35222 18.4995 2.35222 18.4995L3.98406 20.23Z" fill="#2494D1"/>
<path d="M20.8644 18.6174C20.8644 20.5438 19.5907 21.187 17.2027 22.0944C14.4962 22.0944 9.03711 20.5438 9.03711 18.6174C9.03711 16.691 14.9977 15.1277 17.7042 15.1277C20.4106 15.1277 20.8596 16.6895 20.8596 18.6174" fill="#2494D1"/>
<path d="M19.4873 35.9642C19.4873 35.9642 18.6467 32.4617 21.2799 31.2852C20.7816 32.632 19.7547 35.555 20.3979 36.5867C21.0411 37.6183 19.4873 35.9642 19.4873 35.9642Z" fill="#2494D1"/>
<path d="M17.1645 44.4927C8.3207 44.4927 1.14697 30.6834 1.14697 21.6708C1.14697 13.5737 6.98657 8.93457 17.1692 8.93457C27.3519 8.93457 33.1899 13.5801 33.1899 21.6708C33.1852 30.6834 26.0082 44.4927 17.1645 44.4927ZM17.1645 10.2003C12.729 10.2003 2.41423 11.3146 2.41423 21.6708C2.41423 29.9846 9.16448 43.2224 17.1645 43.2224C25.1645 43.2224 31.9147 29.9846 31.9147 21.6708C31.9147 11.3179 21.5983 10.2003 17.1645 10.2003Z" fill="#144A8F"/>
<path d="M12.2402 24.6956C12.2402 24.6956 13.0999 28.3573 18.8472 28.9066C19.2324 28.9432 19.4601 28.4703 19.2531 28.144C18.9825 27.7157 18.1196 27.0216 18.1069 26.4532C19.3805 26.6013 21.4501 27.219 22.5391 26.6299C22.6138 26.589 22.6756 26.528 22.7176 26.4538C22.7596 26.3797 22.7801 26.2953 22.7768 26.2102C22.7734 26.125 22.7465 26.0425 22.6989 25.9718C22.6513 25.9011 22.5849 25.8451 22.5073 25.81C21.802 25.4916 21.837 24.304 21.5106 23.6958" fill="#2494D1"/>
<path d="M12.4106 23.5319C12.4106 23.5319 12.9058 27.5678 20.0636 27.0472C19.6385 26.4963 19.1864 25.9057 19.1673 25.1033C20.5874 25.2625 22.3816 25.3055 23.2859 24.2468C22.4421 24.0987 21.4964 23.4507 21.1048 22.7168" fill="white"/>
<path d="M18.8186 27.73C12.3597 27.73 11.7993 23.7866 11.777 23.6098C11.7673 23.4485 11.8193 23.2894 11.9226 23.165C12.0258 23.0405 12.1725 22.96 12.3329 22.9398C12.4933 22.9195 12.6554 22.961 12.7864 23.0559C12.9173 23.1508 13.0072 23.2919 13.0379 23.4506C13.0586 23.5923 13.5521 26.4596 18.8202 26.4596H18.8934C18.6672 26.048 18.5422 25.5885 18.5289 25.1191C18.5278 25.0294 18.5456 24.9405 18.5813 24.8582C18.617 24.7759 18.6696 24.702 18.7358 24.6415C18.8032 24.5808 18.8829 24.5351 18.9694 24.5077C19.0558 24.4802 19.1472 24.4716 19.2373 24.4823C20.3836 24.616 21.2656 24.5858 21.9024 24.3899C21.3381 24.0622 20.8689 23.5931 20.5412 23.0287C20.4815 22.8833 20.4777 22.7208 20.5306 22.5727C20.5835 22.4246 20.6893 22.3013 20.8277 22.2266C20.9661 22.1519 21.1272 22.131 21.2801 22.168C21.433 22.205 21.5667 22.2972 21.6556 22.427C21.9486 22.9746 22.7255 23.5159 23.3862 23.6321C23.4961 23.6521 23.5989 23.7006 23.6842 23.7728C23.7695 23.845 23.8342 23.9384 23.872 24.0436C23.9097 24.1488 23.9191 24.2621 23.8993 24.3721C23.8794 24.482 23.8309 24.5848 23.7587 24.6701C22.8496 25.7368 21.3181 25.8944 19.984 25.8244C20.1478 26.1237 20.3397 26.4067 20.5571 26.6697C20.6268 26.7608 20.6707 26.869 20.684 26.9828C20.6973 27.0967 20.6796 27.2121 20.6329 27.3168C20.5861 27.4215 20.5119 27.5116 20.4181 27.5776C20.3244 27.6436 20.2145 27.6831 20.1002 27.6918C19.6534 27.7184 19.2262 27.7311 18.8186 27.73Z" fill="#144A8F"/>
<path d="M21.9167 17.9088C21.9167 19.1665 19.7898 21.4797 17.1645 21.4797C14.5392 21.4797 12.4106 19.1665 12.4106 17.9088C12.4106 16.651 14.3131 0.636719 16.94 0.636719C19.5669 0.636719 21.9167 16.6526 21.9167 17.9088Z" fill="white"/>
<path d="M17.1645 22.1166C14.2415 22.1166 11.7754 19.5327 11.7754 17.9089C11.7754 17.7258 13.3818 0 16.94 0C20.5412 0 22.5535 17.7305 22.5535 17.9089C22.5535 19.5327 20.0922 22.1166 17.1645 22.1166ZM16.94 1.27204C15.3082 1.27204 13.0475 15.4062 13.0475 17.9089C13.0475 18.7606 14.829 20.8446 17.1645 20.8446C19.5 20.8446 21.2815 18.7606 21.2815 17.9089C21.2815 17.3421 20.6956 13.0468 19.7913 8.9393C18.1484 1.48697 16.9511 1.27204 16.94 1.27204Z" fill="#144A8F"/>
<path d="M20.0205 40.4379C20.0874 40.7754 19.5333 40.4204 18.9602 40.5334C18.3871 40.6465 18.005 41.1862 17.9445 40.8519C17.884 40.5175 18.2215 39.8122 18.7946 39.6976C19.3678 39.583 19.9536 40.102 20.0205 40.4411" fill="#144A8F"/>
<path d="M14.361 40.4379C14.2941 40.7754 14.8482 40.4204 15.4213 40.5334C15.9944 40.6465 16.3765 41.1862 16.437 40.8519C16.4975 40.5175 16.16 39.8122 15.5869 39.6976C15.0137 39.583 14.4279 40.102 14.361 40.4411" fill="#144A8F"/>
<path d="M8.31114 12.714C8.31114 12.714 4.55392 10.8545 1.08009 11.0774C-0.153738 14.6484 1.25999 18.2193 3.94576 19.6107" fill="white"/>
<path d="M3.93778 20.2477C3.83586 20.2472 3.73548 20.2227 3.64485 20.176C0.561074 18.5728 -0.80012 14.572 0.478287 10.869C0.519368 10.7506 0.594449 10.647 0.69413 10.5711C0.793812 10.4952 0.913664 10.4504 1.03868 10.4423C4.64943 10.2035 8.4337 12.0646 8.59291 12.1442C8.73446 12.2244 8.83994 12.3557 8.88772 12.5112C8.9355 12.6667 8.92194 12.8347 8.84984 12.9805C8.77773 13.1263 8.65255 13.239 8.49997 13.2955C8.34739 13.3519 8.17899 13.3479 8.02933 13.2841C7.99589 13.2682 4.68604 11.6602 1.55132 11.692C0.704358 14.6851 1.814 17.7912 4.23072 19.0473C4.35642 19.1134 4.4564 19.2196 4.51478 19.3491C4.57315 19.4786 4.58657 19.6239 4.5529 19.7618C4.51923 19.8998 4.4404 20.0226 4.32895 20.1106C4.21749 20.1986 4.07981 20.2469 3.93778 20.2477Z" fill="#144A8F"/>
<path d="M2.30125 13.4607C2.21687 13.9924 2.32513 16.2181 4.30563 17.7767C4.32138 17.7935 4.34258 17.8041 4.36545 17.8067C4.38832 17.8093 4.41136 17.8037 4.43048 17.7909C4.4496 17.7781 4.46355 17.7589 4.46984 17.7368C4.47613 17.7147 4.47436 17.691 4.46483 17.6701C4.34002 17.3253 4.25821 16.9665 4.22125 16.6018C4.21968 16.5803 4.22417 16.5589 4.23421 16.5399C4.24425 16.5209 4.25944 16.5051 4.27803 16.4943C4.29663 16.4835 4.31789 16.4781 4.33938 16.4788C4.36087 16.4796 4.38172 16.4863 4.39956 16.4983C4.58105 16.6209 4.80394 16.7069 5.23538 16.6161C5.26758 16.6092 5.29769 16.5947 5.32329 16.574C5.34888 16.5532 5.36924 16.5268 5.38272 16.4967C5.3962 16.4666 5.40242 16.4338 5.40089 16.4009C5.39936 16.368 5.39011 16.3359 5.37389 16.3073C5.27665 16.1628 5.20902 16.0004 5.17488 15.8296C5.17064 15.8007 5.17284 15.7711 5.18134 15.7431C5.18983 15.7151 5.20441 15.6893 5.22402 15.6675C5.24364 15.6458 5.26781 15.6286 5.29482 15.6173C5.32182 15.606 5.351 15.6007 5.38026 15.602C6.13488 15.6291 6.72394 15.723 7.19518 15.3855" fill="#2494D1"/>
<path d="M6.92284 14.9078C5.61996 14.2982 4.24361 13.86 2.82812 13.604L6.92284 14.9078Z" fill="white"/>
<path d="M6.9228 15.5432C6.82519 15.5426 6.72893 15.5203 6.64101 15.4779C5.39329 14.8961 4.07596 14.4772 2.72141 14.2313C2.56069 14.1971 2.41943 14.1021 2.32716 13.9661C2.23489 13.8301 2.19875 13.6637 2.2263 13.5017C2.25384 13.3398 2.34295 13.1947 2.47498 13.0968C2.607 12.999 2.77174 12.956 2.93474 12.9768C4.41144 13.2418 5.84698 13.6994 7.20459 14.338C7.33201 14.4024 7.4341 14.5077 7.49448 14.6371C7.55485 14.7665 7.57 14.9124 7.53749 15.0514C7.50499 15.1904 7.42672 15.3145 7.31524 15.4036C7.20377 15.4928 7.06556 15.542 6.9228 15.5432Z" fill="#144A8F"/>
<path d="M26.0161 12.714C26.0161 12.714 29.7749 10.8545 33.2488 11.0774C34.4826 14.6484 33.0689 18.2193 30.3831 19.6107" fill="white"/>
<path d="M30.3912 20.2476C30.2491 20.2471 30.1112 20.1991 29.9994 20.1112C29.8877 20.0233 29.8086 19.9006 29.7747 19.7625C29.7409 19.6244 29.7542 19.479 29.8125 19.3494C29.8709 19.2197 29.9709 19.1134 30.0967 19.0472C32.5102 17.791 33.6247 14.685 32.7777 11.6951C29.6239 11.6442 26.3331 13.2681 26.3013 13.284C26.1516 13.3478 25.9832 13.3518 25.8306 13.2954C25.6781 13.2389 25.5529 13.1262 25.4808 12.9804C25.4087 12.8345 25.3951 12.6666 25.4429 12.5111C25.4907 12.3556 25.5962 12.2243 25.7377 12.1441C25.8969 12.0661 29.6907 10.2113 33.2935 10.4422C33.4186 10.4503 33.5384 10.4951 33.6381 10.571C33.7378 10.6469 33.8128 10.7505 33.8539 10.8689C35.1276 14.5719 33.7711 18.5727 30.6858 20.1759C30.5948 20.2232 30.4938 20.2477 30.3912 20.2476Z" fill="#144A8F"/>
<path d="M32.0326 13.4607C32.117 13.9924 32.0087 16.2181 30.0282 17.7767C30.0125 17.7935 29.9913 17.8041 29.9684 17.8067C29.9456 17.8093 29.9225 17.8037 29.9034 17.7909C29.8843 17.7781 29.8703 17.7589 29.864 17.7368C29.8577 17.7147 29.8595 17.691 29.869 17.6701C29.9931 17.3251 30.0749 16.9664 30.1126 16.6018C30.1142 16.5803 30.1097 16.5589 30.0997 16.5399C30.0896 16.5209 30.0744 16.5051 30.0558 16.4943C30.0372 16.4835 30.016 16.4781 29.9945 16.4788C29.973 16.4796 29.9522 16.4863 29.9343 16.4983C29.7528 16.6209 29.5299 16.7069 29.0985 16.6161C29.0663 16.6092 29.0362 16.5947 29.0106 16.574C28.985 16.5532 28.9646 16.5268 28.9512 16.4967C28.9377 16.4666 28.9315 16.4338 28.933 16.4009C28.9345 16.368 28.9438 16.3359 28.96 16.3073C29.0566 16.1624 29.1242 16.0002 29.159 15.8296C29.1632 15.8007 29.161 15.7711 29.1525 15.7431C29.144 15.7151 29.1295 15.6893 29.1099 15.6675C29.0902 15.6458 29.0661 15.6286 29.0391 15.6173C29.0121 15.606 28.9829 15.6007 28.9536 15.602C28.199 15.6291 27.6099 15.723 27.1387 15.3855" fill="#2494D1"/>
<path d="M27.4045 14.9078C28.7079 14.2981 30.0848 13.8598 31.5008 13.604L27.4045 14.9078Z" fill="white"/>
<path d="M27.4062 15.5432C27.2633 15.5423 27.1248 15.4934 27.0131 15.4044C26.9013 15.3153 26.8228 15.1912 26.7901 15.0521C26.7574 14.913 26.7724 14.767 26.8327 14.6375C26.8931 14.5079 26.9952 14.4025 27.1228 14.338C28.4814 13.6991 29.918 13.2415 31.3958 12.9768C31.5588 12.956 31.7235 12.999 31.8556 13.0968C31.9876 13.1947 32.0767 13.3398 32.1043 13.5017C32.1318 13.6637 32.0957 13.8301 32.0034 13.9661C31.9111 14.1021 31.7699 14.1971 31.6091 14.2313C30.2541 14.4774 28.9363 14.8963 27.688 15.4779C27.6 15.5204 27.5038 15.5427 27.4062 15.5432Z" fill="#144A8F"/>
<path d="M29.751 34.802C28.1319 38.3045 24.9447 40.2754 22.6314 39.2072C20.3182 38.1389 19.7562 34.431 21.3737 30.9286C22.9912 27.4261 26.1801 25.4535 28.4933 26.5234C30.8066 27.5932 31.3701 31.2995 29.751 34.802Z" fill="white"/>
<path d="M23.988 40.1353C23.4281 40.1379 22.8744 40.0178 22.3658 39.7835C21.046 39.1737 20.1703 37.8571 19.8997 36.0756C19.6434 34.3912 19.9634 32.4681 20.7976 30.6627C22.5616 26.8418 26.1357 24.7339 28.7578 25.9471C31.3799 27.1602 32.0883 31.2534 30.326 35.068C29.4901 36.8733 28.2324 38.3618 26.7837 39.2581C25.846 39.8408 24.8907 40.1353 23.988 40.1353ZM27.1562 26.8736C25.3301 26.8736 23.149 28.6058 21.9518 31.196C21.2211 32.7785 20.9377 34.4439 21.1558 35.8847C21.3596 37.2299 21.9789 38.2058 22.8975 38.6293C23.8161 39.0527 24.9672 38.8935 26.1166 38.1771C27.3552 37.4099 28.441 36.117 29.1717 34.5345C30.6157 31.4109 30.1827 28.0072 28.2261 27.1013C27.8903 26.9484 27.5251 26.8707 27.1562 26.8736Z" fill="#144A8F"/>
<path d="M4.57789 34.802C6.1954 38.3045 9.38267 40.2754 11.6959 39.2072C14.0092 38.1389 14.5727 34.431 12.9536 30.9286C11.3345 27.4261 8.15202 25.4551 5.83401 26.525C3.516 27.5948 2.95879 31.3011 4.57789 34.8036" fill="white"/>
<path d="M10.3395 40.1354C9.43678 40.1354 8.48155 39.8409 7.54225 39.2582C6.09349 38.3619 4.83578 36.8701 3.99996 35.068C2.23757 31.2471 2.93966 27.1619 5.56812 25.9472C8.19658 24.7324 11.7676 26.8483 13.5284 30.6628C14.3626 32.4682 14.681 34.3913 14.4247 36.0757C14.154 37.8572 13.2784 39.1738 11.9602 39.7836C11.4521 40.0176 10.8989 40.1377 10.3395 40.1354ZM7.1729 26.8737C6.80341 26.8705 6.43769 26.9482 6.10145 27.1014C4.14484 28.0073 3.71339 31.411 5.15419 34.5346C5.88494 36.1171 6.97071 37.4098 8.21091 38.1772C9.36832 38.9 10.5114 39.0592 11.4301 38.6294C12.3487 38.1995 12.9664 37.2299 13.1717 35.8847C13.3899 34.4439 13.1081 32.7786 12.3757 31.1961C11.1769 28.6059 8.99897 26.8737 7.1729 26.8737Z" fill="#144A8F"/>
<path d="M4.57789 34.802C6.1954 38.3045 9.38267 40.2754 11.6959 39.2072C14.0092 38.1389 14.5727 34.431 12.9536 30.9286C11.3345 27.4261 8.15202 25.4551 5.83401 26.525C3.516 27.5948 2.95879 31.3011 4.57789 34.8036" fill="white"/>
<path d="M10.3395 40.1354C9.43678 40.1354 8.48155 39.8409 7.54225 39.2582C6.09349 38.3619 4.83578 36.8701 3.99996 35.068C2.23757 31.2471 2.93966 27.1619 5.56812 25.9472C8.19658 24.7324 11.7676 26.8483 13.5284 30.6628C14.3626 32.4682 14.681 34.3913 14.4247 36.0757C14.154 37.8572 13.2784 39.1738 11.9602 39.7836C11.4521 40.0176 10.8989 40.1377 10.3395 40.1354ZM7.1729 26.8737C6.80341 26.8705 6.43769 26.9482 6.10145 27.1014C4.14484 28.0073 3.71339 31.411 5.15419 34.5346C5.88494 36.1171 6.97071 37.4098 8.21091 38.1772C9.36832 38.9 10.5114 39.0592 11.4301 38.6294C12.3487 38.1995 12.9664 37.2299 13.1717 35.8847C13.3899 34.4439 13.1081 32.7786 12.3757 31.1961C11.1769 28.6059 8.99897 26.8737 7.1729 26.8737Z" fill="#144A8F"/>
<path d="M13.1797 32.0542C13.0819 32.2771 12.9344 32.4746 12.7484 32.6315C12.5624 32.7885 12.3429 32.9007 12.1068 32.9595C11.8706 33.0184 11.6241 33.0223 11.3862 32.9711C11.1483 32.9198 10.9253 32.8146 10.7344 32.6637C10.5435 32.5128 10.3897 32.3201 10.2849 32.1005C10.1801 31.8808 10.127 31.6401 10.1298 31.3967C10.1325 31.1534 10.1911 30.9139 10.3008 30.6967C10.4106 30.4795 10.5687 30.2903 10.763 30.1438C10.6993 30.1438 10.6388 30.1247 10.5735 30.1247C9.98263 30.1146 9.40386 30.2925 8.92062 30.6326C8.43738 30.9728 8.07466 31.4576 7.88476 32.0172C7.69486 32.5768 7.68759 33.1822 7.86401 33.7462C8.04043 34.3102 8.39142 34.8036 8.86635 35.1552C9.34129 35.5069 9.91563 35.6986 10.5066 35.7027C11.0975 35.7068 11.6745 35.5232 12.1543 35.1782C12.6341 34.8333 12.992 34.3449 13.1763 33.7834C13.3605 33.2219 13.3617 32.6164 13.1797 32.0542Z" fill="#144A8F"/>
<path d="M13.8419 38.9652C13.4445 39.4584 13.2462 40.0826 13.2863 40.7147C13.3264 41.3468 13.6019 41.941 14.0584 42.3801C14.7271 43.0169 16.1901 43.3942 16.94 43.4595C16.94 43.4595 11.4729 43.0997 9.63257 40.4028C10.4285 39.5813 12.4982 38.4637 13.1159 37.6756C13.7336 36.8876 15.0439 35.356 15.9163 36.1234" fill="#2494D1"/>
<path d="M15.0471 35.9197C15.0471 35.9197 16.0914 29.9718 11.5557 28.27C12.5332 30.4717 14.5567 35.2606 13.5872 37.0564C12.6176 38.8523 15.0471 35.9197 15.0471 35.9197Z" fill="#2494D1"/>
<path d="M17.1612 44.4928C14.1124 44.4928 11.0462 42.861 8.29193 39.7756C8.24413 39.7206 8.20543 39.6582 8.1773 39.5909C6.54068 38.8045 4.99322 37.2029 3.99979 35.0696C2.2374 31.2487 2.94108 27.1619 5.56795 25.9472C6.88616 25.3374 8.4575 25.5237 9.98904 26.4725C11.4394 27.3689 12.6955 28.8606 13.5313 30.6628C14.3496 32.4347 14.6362 34.2672 14.4452 35.8433C15.2016 35.1399 16.2013 34.757 17.2341 34.7751C18.2669 34.7932 19.2525 35.2109 19.9839 35.9404L22.2478 38.1915C22.3548 38.3128 22.4117 38.4703 22.4069 38.632C22.4021 38.7937 22.336 38.9475 22.2219 39.0622C22.1078 39.1768 21.9544 39.2438 21.7927 39.2495C21.631 39.2551 21.4733 39.1991 21.3514 39.0926L19.086 36.8399C18.576 36.3315 17.8853 36.0461 17.1652 36.0461C16.4451 36.0461 15.7544 36.3315 15.2444 36.8399L13.0298 39.0449C13.0098 39.0642 12.9885 39.0823 12.9662 39.099C12.6721 39.3816 12.3331 39.6135 11.9632 39.7852C11.4758 40.0078 10.9467 40.1245 10.4109 40.1275C12.1288 41.7195 14.4563 43.2224 17.1612 43.2224C17.3301 43.2224 17.4921 43.2895 17.6115 43.4089C17.7309 43.5283 17.798 43.6903 17.798 43.8592C17.798 44.0281 17.7309 44.1901 17.6115 44.3095C17.4921 44.4289 17.3301 44.496 17.1612 44.496V44.4928ZM5.15402 34.5346C6.62347 37.7187 9.43501 39.5511 11.4298 38.6294C13.3865 37.7251 13.8179 34.3213 12.3851 31.1961C11.6543 29.6152 10.5686 28.3209 9.32834 27.5535C8.17093 26.8371 7.02785 26.6779 6.10924 27.1014C4.15262 28.0057 3.72118 31.411 5.16198 34.5346H5.15402Z" fill="#144A8F"/>
<path d="M29.4215 46.2486C28.2816 46.2315 27.1599 45.9595 26.1387 45.4526C25.9955 45.3747 25.8877 45.2448 25.8374 45.0897C25.7872 44.9347 25.7983 44.7662 25.8685 44.6191C25.9387 44.472 26.0626 44.3574 26.2148 44.2989C26.3669 44.2404 26.5357 44.2425 26.6864 44.3048C28.3962 45.1215 30.0615 45.1883 31.4625 44.5149C30.9196 44.05 30.477 43.6775 30.477 43.6775C30.3641 43.58 30.2889 43.4459 30.2647 43.2987C30.2406 43.1514 30.2688 43.0004 30.3447 42.8719C30.4205 42.7434 30.539 42.6455 30.6796 42.5955C30.8202 42.5455 30.9739 42.5464 31.1138 42.5981C32.3063 43.0757 33.3697 43.0566 34.3632 42.5599C35.6193 41.9326 36.5299 40.6399 37.1349 39.4825C36.1797 39.8566 34.8281 40.0174 32.9686 39.5828C29.0187 38.6546 26.0448 42.3386 26.0161 42.3752C25.9084 42.4975 25.7579 42.5739 25.5956 42.5886C25.4333 42.6033 25.2715 42.5552 25.1436 42.4542C25.0157 42.3532 24.9314 42.207 24.908 42.0457C24.8846 41.8844 24.9239 41.7203 25.0179 41.5872C25.158 41.4089 28.5108 37.2298 33.2599 38.3442C37.0505 39.2325 38.0535 37.2059 38.0949 37.1199C38.1622 36.9752 38.2813 36.8611 38.4287 36.8001C38.5762 36.7391 38.7411 36.7356 38.8909 36.7904C39.0397 36.8453 39.1626 36.9537 39.2356 37.0945C39.3086 37.2352 39.3265 37.3981 39.2858 37.5513C39.2348 37.7392 37.9962 42.1683 34.9331 43.695C34.3389 43.9968 33.6882 44.1709 33.0227 44.2061C33.0775 44.2733 33.118 44.3511 33.1416 44.4345C33.1653 44.518 33.1717 44.6054 33.1604 44.6915C33.149 44.7775 33.1202 44.8603 33.0758 44.9348C33.0313 45.0093 32.972 45.0739 32.9017 45.1247C31.8899 45.8584 30.6713 46.2519 29.4215 46.2486Z" fill="#144A8F"/>
<path d="M14.8814 52.5994H9.67383V54.755H14.8814V52.5994Z" fill="#EB2126"/>
<path d="M22.9484 53.5659H17.7424V55.7215H22.9484V53.5659Z" fill="#EB2126"/>
<path d="M20.2594 56.0015C20.0905 56.0015 19.9285 55.9344 19.8091 55.815C19.6897 55.6955 19.6226 55.5336 19.6226 55.3647V54.4859C19.6226 54.317 19.6897 54.155 19.8091 54.0356C19.9285 53.9161 20.0905 53.8491 20.2594 53.8491C20.4283 53.8491 20.5903 53.9161 20.7097 54.0356C20.8291 54.155 20.8962 54.317 20.8962 54.4859V55.3647C20.8962 55.5336 20.8291 55.6955 20.7097 55.815C20.5903 55.9344 20.4283 56.0015 20.2594 56.0015Z" fill="#144A8F"/>
<path d="M9.76472 52.3653C9.76472 52.3653 10.4843 52.3653 11.0383 52.3334C11.2134 52.3255 11.3392 52.5611 11.2723 52.7776C11.016 53.615 11.2373 54.2917 11.0431 54.5527C10.8107 54.86 9.51318 54.384 9.51318 54.384L9.76472 52.3653Z" fill="#A62126"/>
<path d="M17.6675 53.421C17.6675 53.421 18.3807 53.3271 18.9268 53.2299C19.0987 53.1997 19.2452 53.4178 19.2133 53.6407C19.0653 54.5036 19.3725 55.1468 19.2133 55.4302C19.0207 55.7661 17.6738 55.4556 17.6738 55.4556L17.6675 53.421Z" fill="#A62126"/>
<path d="M14.7875 17.1049C14.7875 17.1049 17.4525 19.3465 19.2754 18.8561C20.3771 18.5584 19.2133 20.9258 14.9419 20.3319C10.4969 19.711 12.8006 15.1785 12.8006 15.1785L14.7875 17.1049Z" fill="#EB2126"/>
<path d="M15.3717 12.4608C15.6774 13.1836 18.0002 14.2757 19.6161 14.1834C19.7229 14.1758 19.8292 14.2043 19.9178 14.2644C20.0064 14.3244 20.0723 14.4125 20.1049 14.5145C20.4918 15.7659 20.5045 17.2067 20.1797 17.7862C19.8613 18.3402 12.7704 17.0347 12.7401 14.0449C12.7099 11.055 13.9071 10.9961 13.9071 10.9961L15.3717 12.4608Z" fill="#EB2126"/>
<path d="M15.4181 7.46344C15.6585 8.15279 17.475 9.24812 18.6977 9.35797C18.8415 9.37155 18.9783 9.42663 19.0913 9.51652C19.2044 9.6064 19.2889 9.72721 19.3345 9.86424C19.6529 10.8004 19.7469 11.8113 19.8981 12.7156C19.9936 13.2824 13.2816 12.0374 13.2561 9.05389C13.2307 6.07041 14.2114 6.00513 14.2114 6.00513L15.4181 7.46344Z" fill="#EB2126"/>
<path d="M19.4077 18.3866C17.3778 18.3866 15.5565 17.5348 14.8895 17.183C13.6524 16.5271 12.2912 15.4811 12.1527 14.51C12.1381 14.3467 12.187 14.184 12.2893 14.0559C12.3915 13.9277 12.5393 13.8439 12.7018 13.822C12.8642 13.8 13.0289 13.8416 13.1615 13.938C13.2941 14.0344 13.3844 14.1783 13.4136 14.3396C13.4566 14.5896 14.1794 15.4015 15.6536 16.145C16.4592 16.5509 19.266 17.7864 21.5696 16.6337C21.6448 16.5906 21.728 16.5632 21.814 16.5533C21.9001 16.5434 21.9873 16.5512 22.0703 16.5762C22.1533 16.6012 22.2303 16.6428 22.2966 16.6986C22.3629 16.7544 22.4172 16.8231 22.456 16.9005C22.4949 16.978 22.5175 17.0626 22.5225 17.1491C22.5275 17.2356 22.5148 17.3222 22.4852 17.4037C22.4556 17.4851 22.4097 17.5596 22.3502 17.6227C22.2908 17.6858 22.2191 17.736 22.1396 17.7705C21.2897 18.1867 20.354 18.3977 19.4077 18.3866ZM19.0367 13.6105C17.6892 13.5827 16.3684 13.2293 15.1872 12.5804C14.1141 12.012 12.9281 11.0998 12.8118 10.2433C12.7953 10.0793 12.8431 9.91517 12.9451 9.78563C13.0471 9.65609 13.1953 9.57115 13.3586 9.54867C13.522 9.52619 13.6876 9.56793 13.8208 9.66511C13.954 9.76228 14.0443 9.90732 14.0727 10.0698C14.1316 10.2831 14.8258 11.0409 16.2188 11.6761C17.0355 12.0487 19.1227 12.8208 20.8596 11.9484C21.0089 11.8838 21.1773 11.8788 21.3301 11.9344C21.483 11.99 21.6088 12.102 21.6817 12.2474C21.7546 12.3928 21.7691 12.5606 21.7222 12.7164C21.6753 12.8722 21.5706 13.0041 21.4295 13.0851C20.6837 13.4441 19.8643 13.624 19.0367 13.6105Z" fill="#144A8F"/>
<path d="M18.7023 6.5623C18.7338 6.69263 18.7138 6.8301 18.6465 6.94606C18.5792 7.06202 18.4697 7.14754 18.3409 7.18479C17.8464 7.3577 17.3282 7.45381 16.8046 7.46976C14.9976 7.51275 14.2605 5.31892 14.2605 5.31892C14.2605 5.31892 14.9658 1.10797 16.5515 1.15096C17.0896 1.16528 18.2947 4.86678 18.7023 6.56389" fill="#EB2126"/>
<path d="M17.1645 22.1166C14.2415 22.1166 11.7754 19.5327 11.7754 17.9089C11.7754 17.8006 12.3772 11.122 13.6572 5.95423C13.6635 5.89623 13.678 5.83942 13.7002 5.78547C14.509 2.5807 15.582 0 16.94 0C20.5412 0 22.5535 17.7305 22.5535 17.9089C22.5535 19.5327 20.0922 22.1166 17.1645 22.1166ZM14.6379 7.42368C13.7416 11.563 13.0459 16.5238 13.0459 17.9089C13.0459 18.7606 14.8274 20.8446 17.1629 20.8446C19.4984 20.8446 21.2799 18.7606 21.2799 17.9089C21.2799 17.3421 20.694 13.0468 19.7897 8.9393C19.7706 8.84856 19.7499 8.7594 19.7308 8.67184C18.489 8.99025 16.9846 8.76736 15.5533 8.00955C15.233 7.83908 14.9269 7.64316 14.6379 7.42368ZM14.9643 5.99085C15.1474 6.2392 15.7778 6.78687 16.7888 7.1801C17.381 7.41254 18.4477 7.71821 19.4427 7.43801C17.9828 1.45353 16.9495 1.27363 16.94 1.27363C16.3191 1.27204 15.6075 3.31781 14.9643 5.98925V5.99085Z" fill="#144A8F"/>
<path d="M26.3569 32.0319C26.261 32.2563 26.1147 32.4557 25.9295 32.6145C25.7442 32.7734 25.5249 32.8876 25.2885 32.9482C25.0521 33.0088 24.8049 33.0143 24.5661 32.9641C24.3272 32.914 24.1031 32.8097 23.911 32.6591C23.7189 32.5086 23.564 32.3159 23.4583 32.096C23.3525 31.876 23.2987 31.6347 23.3011 31.3907C23.3035 31.1466 23.3619 30.9064 23.4719 30.6885C23.5819 30.4707 23.7405 30.281 23.9354 30.1342C23.8749 30.1342 23.8176 30.1167 23.7555 30.1167C23.2129 30.1167 22.6825 30.2776 22.2314 30.5791C21.7802 30.8806 21.4287 31.3091 21.2211 31.8104C21.0135 32.3118 20.9593 32.8634 21.0653 33.3955C21.1712 33.9277 21.4326 34.4165 21.8164 34.8C22.2002 35.1836 22.6891 35.4447 23.2213 35.5504C23.7536 35.656 24.3051 35.6015 24.8064 35.3936C25.3076 35.1858 25.7359 34.8339 26.0371 34.3826C26.3383 33.9313 26.4989 33.4008 26.4986 32.8582C26.4949 32.5771 26.4471 32.2983 26.3569 32.0319Z" fill="#144A8F"/>
<path d="M17.1899 46.0642L17.2456 45.9273C17.8044 45.8206 18.6227 46.1915 18.8472 46.7137L19.562 48.7961C19.6584 49.0778 19.6711 49.3814 19.5986 49.6701L18.7723 52.9864L18.4619 49.2069L17.1899 46.0642Z" fill="#2494D1"/>
<path d="M12.1558 55.2979C11.9869 55.2979 11.825 55.2308 11.7055 55.1114C11.5861 54.992 11.519 54.83 11.519 54.6611V53.8794C11.519 53.7105 11.5861 53.5485 11.7055 53.4291C11.825 53.3097 11.9869 53.2426 12.1558 53.2426C12.3247 53.2426 12.4867 53.3097 12.6061 53.4291C12.7255 53.5485 12.7926 53.7105 12.7926 53.8794V54.6611C12.7926 54.83 12.7255 54.992 12.6061 55.1114C12.4867 55.2308 12.3247 55.2979 12.1558 55.2979ZM14.4484 52.7809H9.67222C9.50332 52.7809 9.34135 52.7138 9.22192 52.5944C9.1025 52.475 9.0354 52.313 9.0354 52.1441C9.0354 51.9752 9.1025 51.8132 9.22192 51.6938C9.34135 51.5744 9.50332 51.5073 9.67222 51.5073H14.4484C14.6173 51.5073 14.7792 51.5744 14.8987 51.6938C15.0181 51.8132 15.0852 51.9752 15.0852 52.1441C15.0852 52.313 15.0181 52.475 14.8987 52.5944C14.7792 52.7138 14.6173 52.7809 14.4484 52.7809Z" fill="#144A8F"/>
<path d="M22.6395 53.6183H18.1117C17.9428 53.6183 17.7809 53.5512 17.6614 53.4318C17.542 53.3124 17.4749 53.1504 17.4749 52.9815C17.4749 52.8126 17.542 52.6506 17.6614 52.5312C17.7809 52.4118 17.9428 52.3447 18.1117 52.3447H22.6395C22.8084 52.3447 22.9704 52.4118 23.0898 52.5312C23.2092 52.6506 23.2763 52.8126 23.2763 52.9815C23.2763 53.1504 23.2092 53.3124 23.0898 53.4318C22.9704 53.5512 22.8084 53.6183 22.6395 53.6183Z" fill="#144A8F"/>
<path d="M17.5879 46.8727C18.1721 47.457 19.1894 49.0713 18.7691 49.49C18.3488 49.9088 17.0179 49.5314 16.4384 48.9472C15.8589 48.3629 15.6663 47.5748 16.0866 47.1561C16.9478 47.5111 17.0036 46.2885 17.5879 46.8727Z" fill="#2494D1"/>
<path d="M14.391 55.3902H9.53215C9.44507 55.3904 9.35888 55.3726 9.27892 55.3381C9.19896 55.3036 9.12693 55.2531 9.06728 55.1897C9.00769 55.126 8.96182 55.0507 8.93251 54.9685C8.90321 54.8864 8.8911 54.7991 8.89693 54.712L9.38728 47.3234C9.39178 47.2613 9.40518 47.2002 9.42708 47.1419L11.3582 41.9948C11.4231 41.8448 11.5433 41.7254 11.6938 41.6615C11.8443 41.5976 12.0136 41.5941 12.1666 41.6516C12.3197 41.7091 12.4447 41.8232 12.5159 41.9704C12.5871 42.1176 12.599 42.2865 12.549 42.4422L10.6513 47.4969L10.2119 54.1198H13.7685L13.8593 50.0123C13.8616 49.9283 13.8805 49.8455 13.915 49.7688L15.0294 47.2804C15.0607 47.2001 15.1079 47.1269 15.1683 47.0653C15.2286 47.0038 15.3008 46.9551 15.3805 46.9223C15.4602 46.8895 15.5458 46.8732 15.632 46.8744C15.7182 46.8756 15.8032 46.8944 15.882 46.9294C15.9607 46.9645 16.0315 47.0152 16.0901 47.0784C16.1487 47.1416 16.1938 47.2161 16.2228 47.2973C16.2517 47.3785 16.2639 47.4647 16.2586 47.5507C16.2532 47.6368 16.2304 47.7208 16.1916 47.7978L15.1361 50.1684L15.0342 54.7694C15.03 54.9366 14.9602 55.0955 14.8399 55.2116C14.7195 55.3278 14.5583 55.392 14.391 55.3902Z" fill="#144A8F"/>
<path d="M18.0688 51.708H14.7844V53.6757H18.0688V51.708Z" fill="#EB2126"/>
<path d="M18.0704 54.3124H14.786C14.6171 54.3124 14.4551 54.2453 14.3357 54.1259C14.2162 54.0065 14.1492 53.8445 14.1492 53.6756V51.7079C14.1492 51.539 14.2162 51.377 14.3357 51.2576C14.4551 51.1381 14.6171 51.071 14.786 51.071H18.0704C18.2393 51.071 18.4012 51.1381 18.5207 51.2576C18.6401 51.377 18.7072 51.539 18.7072 51.7079V53.6772C18.7068 53.8458 18.6395 54.0074 18.5201 54.1265C18.4007 54.2456 18.239 54.3124 18.0704 54.3124ZM15.4212 53.0388H17.4335V52.3415H15.4212V53.0388Z" fill="#144A8F"/>
<path d="M22.7494 56H17.8905C17.8018 56.0004 17.714 55.9822 17.6328 55.9467C17.5515 55.9112 17.4786 55.8591 17.4186 55.7937C17.3587 55.7284 17.313 55.6512 17.2846 55.5672C17.2562 55.4832 17.2457 55.3942 17.2536 55.3059L17.8093 49.3071L16.6948 46.7773C16.635 46.6239 16.6369 46.4533 16.7001 46.3013C16.7634 46.1493 16.883 46.0277 17.034 45.962C17.185 45.8963 17.3555 45.8916 17.5099 45.9489C17.6642 46.0063 17.7903 46.1211 17.8618 46.2695L19.032 48.9489C19.0764 49.0487 19.0934 49.1586 19.0813 49.2673L18.5766 54.7359H22.1906L23.2397 47.8902C23.249 47.8047 23.2754 47.7219 23.3175 47.6469C23.3596 47.5719 23.4164 47.5062 23.4846 47.4538C23.5528 47.4013 23.6309 47.3633 23.7142 47.3418C23.7975 47.3204 23.8842 47.3161 23.9693 47.3291C24.0543 47.3421 24.1358 47.3722 24.2088 47.4176C24.2819 47.463 24.345 47.5227 24.3944 47.5931C24.4437 47.6635 24.4783 47.7432 24.496 47.8274C24.5137 47.9116 24.5142 47.9984 24.4974 48.0828L23.7539 53.0468C23.7847 53.0451 23.8155 53.0451 23.8463 53.0468H24.6566C24.6969 52.917 24.7777 52.8035 24.8871 52.7229C24.9966 52.6423 25.1289 52.5988 25.2648 52.5988C25.4007 52.5988 25.533 52.6423 25.6424 52.7229C25.7519 52.8035 25.8326 52.917 25.8729 53.0468H26.6531C26.5352 43.7286 23.8431 41.2163 23.8144 41.1925C23.6886 41.0812 23.6119 40.9248 23.6008 40.7572C23.5898 40.5897 23.6454 40.4245 23.7555 40.2977C23.8648 40.1724 24.0186 40.0948 24.1843 40.0814C24.35 40.068 24.5144 40.1199 24.6423 40.2261C24.776 40.3407 27.9283 43.1284 27.9283 53.682C27.9283 53.8509 27.8612 54.0129 27.7418 54.1323C27.6223 54.2517 27.4604 54.3188 27.2915 54.3188H23.8399C23.7441 54.3189 23.6495 54.2976 23.5629 54.2567L23.3782 55.4667C23.3537 55.6157 23.277 55.7512 23.1618 55.8489C23.0466 55.9466 22.9004 56.0001 22.7494 56ZM16.2618 54.0036C16.0929 54.0036 15.9309 53.9365 15.8115 53.8171C15.6921 53.6976 15.625 53.5357 15.625 53.3668V53.2283C15.625 53.0594 15.6921 52.8974 15.8115 52.778C15.9309 52.6585 16.0929 52.5915 16.2618 52.5915C16.4307 52.5915 16.5927 52.6585 16.7121 52.778C16.8315 52.8974 16.8986 53.0594 16.8986 53.2283V53.37C16.8978 53.5383 16.8303 53.6995 16.711 53.8182C16.5916 53.9369 16.4301 54.0036 16.2618 54.0036Z" fill="#144A8F"/>
</svg>
